<?xml version="1.0" encoding="utf-8"?>
<!-- Generator: Adobe Illustrator 13.0.0, SVG Export Plug-In . SVG Version: 6.00 Build 14948)  -->
<!DOCTYPE svg PUBLIC "-//W3C//DTD SVG 1.0//EN" "http://www.w3.org/TR/2001/REC-SVG-20010904/DTD/svg10.dtd">
<svg version="1.0" id="Layer_1" xmlns="http://www.w3.org/2000/svg" xmlns:xlink="http://www.w3.org/1999/xlink" x="0px" y="0px"
	 width="340px" height="95px" viewBox="0 0 340 95" enable-background="new 0 0 340 95" xml:space="preserve">
<g>
	<g>
		<path fill="#FFFFFF" d="M104.248,4.227h9.91c1.375,0,2.543,0.2,3.509,0.6c0.965,0.399,1.749,0.93,2.354,1.585
			c0.605,0.656,1.047,1.411,1.324,2.263c0.278,0.852,0.416,1.717,0.416,2.598c0,0.904-0.138,1.777-0.416,2.618
			c-0.276,0.841-0.719,1.589-1.324,2.245c-0.605,0.659-1.389,1.186-2.354,1.586c-0.966,0.4-2.134,0.6-3.509,0.6h-5.078v7.879h-4.832
			V4.227z M109.079,14.568h3.755c0.553,0,1.087-0.042,1.599-0.124c0.513-0.082,0.964-0.24,1.355-0.477
			c0.39-0.237,0.702-0.57,0.938-1.001c0.236-0.43,0.354-0.995,0.354-1.693c0-0.696-0.118-1.26-0.354-1.69
			c-0.236-0.433-0.548-0.765-0.938-1.001c-0.391-0.235-0.842-0.395-1.355-0.478c-0.512-0.082-1.046-0.123-1.599-0.123h-3.755V14.568
			z"/>
		<path fill="#FFFFFF" d="M124.129,15.183c0.062-1.027,0.317-1.879,0.77-2.556c0.451-0.676,1.024-1.219,1.722-1.63
			c0.698-0.409,1.477-0.703,2.339-0.877c0.861-0.174,1.744-0.262,2.646-0.262c0.801,0,1.612,0.057,2.432,0.168
			c0.82,0.114,1.569,0.334,2.246,0.663c0.676,0.328,1.23,0.79,1.662,1.386c0.431,0.594,0.646,1.365,0.646,2.308v8.277
			c0,0.719,0.041,1.406,0.124,2.063c0.083,0.657,0.225,1.149,0.431,1.478h-4.431c-0.083-0.247-0.15-0.498-0.2-0.754
			c-0.051-0.257-0.088-0.518-0.107-0.785c-0.698,0.719-1.52,1.227-2.463,1.524c-0.943,0.297-1.908,0.446-2.892,0.446
			c-0.76,0-1.469-0.098-2.125-0.292c-0.657-0.194-1.231-0.488-1.723-0.878c-0.492-0.388-0.878-0.881-1.154-1.477
			c-0.277-0.594-0.416-1.302-0.416-2.123c0-0.903,0.154-1.647,0.462-2.232c0.308-0.585,0.718-1.051,1.231-1.4
			c0.513-0.348,1.092-0.61,1.738-0.785c0.647-0.173,1.308-0.312,1.987-0.415c0.677-0.103,1.322-0.185,1.938-0.247
			c0.615-0.06,1.163-0.153,1.647-0.275c0.482-0.123,0.865-0.302,1.153-0.539c0.286-0.237,0.431-0.58,0.431-1.031
			c0-0.474-0.077-0.848-0.231-1.124c-0.155-0.277-0.358-0.492-0.616-0.645c-0.255-0.154-0.553-0.258-0.891-0.31
			c-0.338-0.05-0.703-0.077-1.093-0.077c-0.843,0-1.514,0.185-2.017,0.554c-0.502,0.369-0.796,0.985-0.877,1.848H124.129z
			 M134.223,18.414c-0.184,0.165-0.415,0.292-0.693,0.385c-0.277,0.091-0.574,0.169-0.891,0.231
			c-0.32,0.062-0.659,0.111-1.017,0.153c-0.358,0.041-0.704,0.093-1.032,0.154c-0.348,0.062-0.676,0.143-0.983,0.246
			c-0.308,0.102-0.58,0.241-0.815,0.416c-0.237,0.174-0.426,0.4-0.57,0.677c-0.144,0.276-0.215,0.61-0.215,1
			c0,0.41,0.071,0.743,0.215,1.001c0.144,0.255,0.34,0.461,0.585,0.615c0.247,0.153,0.533,0.262,0.862,0.323
			c0.328,0.062,0.667,0.093,1.015,0.093c0.863,0,1.528-0.144,2-0.432c0.473-0.288,0.82-0.63,1.047-1.03
			c0.224-0.401,0.364-0.806,0.415-1.217c0.05-0.409,0.077-0.739,0.077-0.985V18.414z"/>
		<path fill="#FFFFFF" d="M142.1,10.289h4.126v2.154h0.06c0.575-0.819,1.268-1.457,2.079-1.907c0.809-0.451,1.738-0.677,2.784-0.677
			c1.005,0,1.924,0.199,2.755,0.6c0.831,0.4,1.462,1.083,1.892,2.047c0.473-0.698,1.114-1.313,1.924-1.847
			c0.81-0.534,1.77-0.8,2.877-0.8c0.841,0,1.623,0.104,2.339,0.308c0.719,0.206,1.333,0.533,1.847,0.984
			c0.514,0.452,0.915,1.043,1.203,1.771c0.285,0.728,0.429,1.604,0.429,2.631v10.649h-4.37v-9.018c0-0.535-0.021-1.036-0.062-1.508
			c-0.041-0.471-0.154-0.881-0.338-1.231c-0.185-0.348-0.457-0.626-0.815-0.832c-0.36-0.203-0.847-0.308-1.462-0.308
			s-1.114,0.119-1.493,0.355c-0.381,0.236-0.678,0.544-0.893,0.922c-0.216,0.38-0.359,0.811-0.432,1.293
			c-0.071,0.483-0.108,0.97-0.108,1.462v8.864h-4.368v-8.926c0-0.451-0.013-0.913-0.031-1.385c-0.021-0.471-0.109-0.902-0.262-1.291
			c-0.154-0.391-0.412-0.704-0.77-0.939c-0.359-0.236-0.888-0.355-1.586-0.355c-0.224,0-0.501,0.048-0.83,0.14
			c-0.329,0.091-0.65,0.265-0.969,0.523c-0.319,0.256-0.589,0.626-0.816,1.106c-0.226,0.482-0.338,1.114-0.338,1.894v9.233H142.1
			V10.289z"/>
		<path fill="#FFFFFF" d="M169.859,10.289h4.155v2.031h0.063c0.53-0.863,1.207-1.487,2.03-1.878c0.818-0.389,1.723-0.584,2.71-0.584
			c1.249,0,2.326,0.236,3.229,0.708c0.905,0.472,1.652,1.097,2.247,1.876c0.593,0.78,1.038,1.688,1.325,2.724
			c0.285,1.038,0.432,2.119,0.432,3.247c0,1.067-0.146,2.093-0.432,3.078c-0.287,0.984-0.724,1.856-1.311,2.617
			c-0.584,0.758-1.313,1.369-2.183,1.83c-0.872,0.461-1.895,0.693-3.063,0.693c-0.965,0-1.869-0.205-2.71-0.615
			c-0.843-0.411-1.528-1.005-2.062-1.786h-0.061v7.57h-4.371V10.289z M177.89,23.337c0.719,0,1.319-0.143,1.802-0.431
			c0.482-0.286,0.872-0.661,1.17-1.124c0.297-0.46,0.512-0.994,0.632-1.599c0.124-0.606,0.187-1.237,0.187-1.895
			c0-0.636-0.067-1.261-0.203-1.875c-0.133-0.618-0.353-1.167-0.663-1.648c-0.307-0.482-0.702-0.871-1.184-1.169
			c-0.483-0.298-1.072-0.447-1.769-0.447c-0.719,0-1.319,0.149-1.802,0.447c-0.481,0.298-0.871,0.683-1.167,1.155
			c-0.299,0.471-0.508,1.02-0.632,1.646c-0.121,0.627-0.184,1.256-0.184,1.892c0,0.658,0.065,1.289,0.201,1.895
			c0.133,0.604,0.347,1.138,0.642,1.599c0.301,0.463,0.688,0.837,1.174,1.124C176.576,23.195,177.17,23.337,177.89,23.337z"/>
		<path fill="#FFFFFF" d="M188.787,4.227h4.372v21.974h-4.372V4.227z"/>
		<path fill="#FFFFFF" d="M196.107,18.26c0-1.273,0.194-2.426,0.586-3.462c0.391-1.036,0.942-1.919,1.662-2.646
			c0.718-0.729,1.579-1.292,2.589-1.693c1-0.401,2.131-0.6,3.382-0.6c1.254,0,2.386,0.199,3.399,0.6
			c1.018,0.4,1.883,0.964,2.602,1.693c0.719,0.728,1.272,1.61,1.664,2.646c0.389,1.037,0.584,2.189,0.584,3.462
			c0,1.271-0.195,2.42-0.584,3.447c-0.392,1.027-0.945,1.902-1.664,2.631c-0.719,0.728-1.584,1.293-2.602,1.693
			c-1.014,0.399-2.146,0.6-3.399,0.6c-1.251,0-2.382-0.201-3.382-0.6c-1.01-0.4-1.871-0.965-2.589-1.693
			c-0.72-0.729-1.271-1.604-1.662-2.631C196.302,20.681,196.107,19.532,196.107,18.26z M200.479,18.26
			c0,0.636,0.063,1.258,0.187,1.863c0.12,0.604,0.334,1.147,0.631,1.629c0.299,0.483,0.691,0.869,1.185,1.155
			c0.49,0.288,1.108,0.431,1.846,0.431c0.739,0,1.36-0.143,1.861-0.431c0.502-0.286,0.902-0.672,1.202-1.155
			c0.296-0.482,0.508-1.025,0.628-1.629c0.125-0.605,0.187-1.227,0.187-1.863c0-0.636-0.062-1.262-0.187-1.876
			c-0.12-0.616-0.332-1.16-0.628-1.631c-0.3-0.472-0.7-0.857-1.202-1.155c-0.501-0.298-1.122-0.447-1.861-0.447
			c-0.737,0-1.355,0.149-1.846,0.447c-0.493,0.298-0.886,0.683-1.185,1.155c-0.297,0.471-0.511,1.016-0.631,1.631
			C200.541,16.999,200.479,17.624,200.479,18.26z"/>
		<path fill="#FFFFFF" d="M215.405,10.289h4.154v2.216h0.093c0.556-0.903,1.271-1.571,2.154-2c0.882-0.43,1.784-0.646,2.71-0.646
			c1.168,0,2.125,0.16,2.877,0.477c0.749,0.319,1.339,0.758,1.767,1.324c0.432,0.564,0.733,1.251,0.908,2.062
			c0.174,0.812,0.265,1.708,0.265,2.694v9.786h-4.371v-8.987c0-1.312-0.21-2.293-0.631-2.939c-0.423-0.646-1.145-0.971-2.168-0.971
			c-1.193,0-2.053,0.355-2.586,1.062c-0.536,0.708-0.801,1.874-0.801,3.494v8.341h-4.371V10.289z"/>
		<path fill="#FFFFFF" d="M233.472,15.183c0.059-1.027,0.318-1.879,0.77-2.556c0.448-0.676,1.027-1.219,1.723-1.63
			c0.697-0.409,1.479-0.703,2.342-0.877c0.859-0.174,1.741-0.262,2.644-0.262c0.801,0,1.61,0.057,2.431,0.168
			c0.821,0.114,1.57,0.334,2.247,0.663c0.68,0.328,1.232,0.79,1.664,1.386c0.43,0.594,0.644,1.365,0.644,2.308v8.277
			c0,0.719,0.041,1.406,0.124,2.063c0.084,0.657,0.225,1.149,0.434,1.478h-4.433c-0.084-0.247-0.152-0.498-0.203-0.754
			c-0.05-0.257-0.085-0.518-0.104-0.785c-0.7,0.719-1.522,1.227-2.465,1.524c-0.944,0.297-1.907,0.446-2.893,0.446
			c-0.759,0-1.467-0.098-2.123-0.292c-0.655-0.194-1.233-0.488-1.724-0.878c-0.493-0.388-0.877-0.881-1.153-1.477
			c-0.279-0.594-0.418-1.302-0.418-2.123c0-0.903,0.156-1.647,0.463-2.232s0.72-1.051,1.229-1.4c0.513-0.348,1.095-0.61,1.742-0.785
			c0.644-0.173,1.307-0.312,1.983-0.415c0.677-0.103,1.322-0.185,1.939-0.247c0.614-0.06,1.162-0.153,1.644-0.275
			c0.483-0.123,0.868-0.302,1.156-0.539c0.288-0.237,0.428-0.58,0.428-1.031c0-0.474-0.075-0.848-0.228-1.124
			c-0.155-0.277-0.357-0.492-0.614-0.645c-0.259-0.154-0.556-0.258-0.894-0.31c-0.339-0.05-0.703-0.077-1.092-0.077
			c-0.843,0-1.515,0.185-2.016,0.554c-0.506,0.369-0.795,0.985-0.881,1.848H233.472z M243.563,18.414
			c-0.183,0.165-0.411,0.292-0.689,0.385c-0.278,0.091-0.572,0.169-0.895,0.231c-0.316,0.062-0.654,0.111-1.012,0.153
			c-0.36,0.041-0.705,0.093-1.032,0.154c-0.35,0.062-0.677,0.143-0.986,0.246c-0.308,0.102-0.578,0.241-0.815,0.416
			c-0.234,0.174-0.426,0.4-0.567,0.677c-0.146,0.276-0.218,0.61-0.218,1c0,0.41,0.071,0.743,0.218,1.001
			c0.142,0.255,0.336,0.461,0.585,0.615c0.245,0.153,0.532,0.262,0.859,0.323c0.33,0.062,0.665,0.093,1.015,0.093
			c0.863,0,1.529-0.144,2.002-0.432c0.472-0.288,0.82-0.63,1.046-1.03c0.227-0.401,0.364-0.806,0.415-1.217
			c0.054-0.409,0.075-0.739,0.075-0.985V18.414z"/>
		<path fill="#FFFFFF" d="M104.248,42.697h16.435v4.063h-11.603v4.71h10.648v3.753h-10.648v5.386h11.848v4.063h-16.68V42.697z"/>
		<path fill="#FFFFFF" d="M123.728,48.757h4.155v2.216h0.093c0.553-0.899,1.271-1.567,2.154-1.997
			c0.881-0.433,1.785-0.646,2.707-0.646c1.17,0,2.129,0.16,2.879,0.478c0.749,0.316,1.337,0.756,1.77,1.324
			c0.431,0.561,0.733,1.248,0.908,2.061c0.172,0.812,0.261,1.709,0.261,2.692v9.788h-4.37v-8.991c0-1.31-0.211-2.288-0.632-2.937
			c-0.422-0.646-1.144-0.971-2.168-0.971c-1.19,0-2.053,0.355-2.585,1.063c-0.535,0.708-0.801,1.872-0.801,3.493v8.342h-4.371
			V48.757z"/>
		<path fill="#FFFFFF" d="M157.273,63.656c0,0.429-0.035,0.908-0.107,1.433c-0.072,0.52-0.211,1.043-0.414,1.564
			c-0.206,0.525-0.495,1.026-0.863,1.509c-0.37,0.481-0.862,0.914-1.477,1.291c-0.617,0.384-1.366,0.686-2.247,0.908
			c-0.882,0.229-1.93,0.341-3.139,0.341c-0.78,0-1.575-0.098-2.384-0.293c-0.812-0.194-1.549-0.496-2.216-0.907
			c-0.667-0.413-1.221-0.937-1.663-1.585s-0.694-1.422-0.754-2.324h4.339c0.205,0.821,0.605,1.391,1.202,1.709
			c0.593,0.315,1.281,0.476,2.061,0.476c1.21,0,2.103-0.367,2.677-1.104c0.575-0.742,0.852-1.687,0.831-2.834v-2.091h-0.06
			c-0.475,0.84-1.145,1.463-2.017,1.859c-0.873,0.4-1.79,0.602-2.754,0.602c-1.19,0-2.215-0.21-3.076-0.629
			c-0.863-0.423-1.57-0.999-2.125-1.726c-0.552-0.73-0.958-1.583-1.215-2.555c-0.256-0.976-0.385-2.005-0.385-3.094
			c0-1.025,0.148-2.016,0.447-2.969c0.297-0.956,0.733-1.796,1.307-2.523c0.575-0.728,1.287-1.309,2.139-1.738
			c0.852-0.433,1.833-0.646,2.94-0.646c1.046,0,1.965,0.196,2.754,0.583c0.79,0.392,1.451,1.046,1.986,1.971h0.06v-2.126h4.154
			V63.656z M149.396,60.915c0.616,0,1.159-0.12,1.631-0.369c0.473-0.245,0.863-0.576,1.17-0.983
			c0.307-0.409,0.538-0.878,0.691-1.399c0.155-0.524,0.231-1.074,0.231-1.648c0-0.635-0.06-1.249-0.185-1.848
			c-0.123-0.593-0.329-1.117-0.615-1.567c-0.288-0.451-0.673-0.812-1.155-1.077s-1.073-0.4-1.769-0.4
			c-0.616,0-1.144,0.124-1.585,0.368c-0.441,0.246-0.811,0.579-1.108,1.002c-0.297,0.42-0.513,0.902-0.646,1.443
			c-0.134,0.547-0.2,1.116-0.2,1.708c0,0.576,0.056,1.146,0.169,1.71c0.111,0.566,0.308,1.07,0.585,1.524
			c0.276,0.452,0.641,0.818,1.093,1.108C148.155,60.771,148.719,60.915,149.396,60.915z"/>
		<path fill="#FFFFFF" d="M160.904,42.697h4.37v21.975h-4.37V42.697z"/>
		<path fill="#FFFFFF" d="M173.215,46.298h-4.371v-3.601h4.371V46.298z M168.844,48.757h4.371v15.915h-4.371V48.757z"/>
		<path fill="#FFFFFF" d="M180.047,59.5c0,0.47,0.096,0.877,0.294,1.217c0.193,0.337,0.445,0.616,0.752,0.83
			c0.308,0.214,0.663,0.372,1.063,0.477c0.397,0.104,0.814,0.155,1.243,0.155c0.308,0,0.632-0.036,0.97-0.107
			c0.342-0.073,0.649-0.187,0.922-0.341c0.279-0.152,0.51-0.357,0.696-0.614c0.184-0.258,0.273-0.579,0.273-0.971
			c0-0.328-0.112-0.608-0.335-0.846c-0.228-0.236-0.549-0.446-0.97-0.632c-0.421-0.183-0.942-0.352-1.557-0.505
			c-0.615-0.155-1.313-0.316-2.089-0.479c-0.641-0.145-1.258-0.311-1.863-0.509c-0.607-0.194-1.146-0.451-1.617-0.77
			c-0.47-0.318-0.851-0.719-1.139-1.198c-0.288-0.484-0.432-1.073-0.432-1.771c0-1.004,0.2-1.842,0.601-2.51
			c0.399-0.665,0.931-1.188,1.584-1.568c0.657-0.377,1.395-0.647,2.218-0.799c0.817-0.154,1.66-0.231,2.521-0.231
			c0.865,0,1.699,0.084,2.512,0.244c0.81,0.167,1.531,0.443,2.166,0.832c0.637,0.389,1.167,0.908,1.587,1.557
			c0.424,0.643,0.674,1.461,0.754,2.444h-4.154c-0.06-0.84-0.381-1.41-0.953-1.708c-0.578-0.297-1.255-0.445-2.033-0.445
			c-0.244,0-0.512,0.014-0.801,0.048c-0.285,0.027-0.547,0.096-0.783,0.196c-0.236,0.104-0.438,0.255-0.601,0.446
			c-0.163,0.196-0.246,0.456-0.246,0.786c0,0.389,0.145,0.708,0.433,0.957c0.284,0.241,0.659,0.444,1.122,0.597
			s0.99,0.293,1.584,0.417c0.595,0.121,1.201,0.255,1.815,0.397c0.635,0.145,1.258,0.319,1.864,0.521
			c0.606,0.21,1.142,0.479,1.613,0.818c0.473,0.338,0.852,0.763,1.14,1.263c0.289,0.502,0.431,1.124,0.431,1.862
			c0,1.046-0.208,1.922-0.628,2.631c-0.425,0.71-0.971,1.276-1.647,1.708c-0.679,0.432-1.452,0.738-2.327,0.922
			c-0.87,0.183-1.759,0.279-2.658,0.279c-0.925,0-1.829-0.097-2.709-0.279c-0.884-0.184-1.669-0.496-2.354-0.936
			c-0.688-0.445-1.249-1.021-1.694-1.739c-0.441-0.72-0.68-1.603-0.723-2.648H180.047z"/>
		<path fill="#FFFFFF" d="M193.187,42.697h4.37v8.275h0.095c0.551-0.899,1.26-1.567,2.123-1.997
			c0.861-0.433,1.702-0.646,2.523-0.646c1.167,0,2.125,0.16,2.875,0.478c0.75,0.316,1.343,0.756,1.771,1.324
			c0.432,0.561,0.733,1.248,0.908,2.061c0.172,0.812,0.262,1.709,0.262,2.692v9.788h-4.37v-8.991c0-1.31-0.212-2.288-0.629-2.937
			c-0.422-0.646-1.145-0.971-2.17-0.971c-1.194,0-2.054,0.355-2.587,1.063c-0.535,0.708-0.801,1.872-0.801,3.493v8.342h-4.37V42.697
			z"/>
		<path fill="#FFFFFF" d="M225.317,46.76h-6.587v-4.063h18.003v4.063h-6.583v17.912h-4.833V46.76z"/>
		<path fill="#FFFFFF" d="M238.98,57.776c0.063,1.396,0.422,2.416,1.078,3.063c0.656,0.645,1.6,0.97,2.831,0.97
			c0.882,0,1.642-0.221,2.277-0.663s1.027-0.907,1.168-1.397h3.847c-0.614,1.885-1.557,3.25-2.829,4.09
			c-1.273,0.841-2.812,1.264-4.618,1.264c-1.252,0-2.377-0.208-3.383-0.614c-1.005-0.412-1.855-0.987-2.556-1.726
			c-0.696-0.739-1.234-1.619-1.617-2.645c-0.379-1.026-0.568-2.157-0.568-3.388c0-1.189,0.195-2.298,0.587-3.324
			c0.387-1.023,0.942-1.914,1.66-2.661c0.717-0.747,1.574-1.34,2.569-1.77c0.995-0.433,2.098-0.646,3.308-0.646
			c1.353,0,2.531,0.262,3.538,0.783c1.008,0.524,1.834,1.226,2.479,2.109c0.646,0.882,1.113,1.89,1.402,3.017
			c0.286,1.128,0.386,2.306,0.307,3.538H238.98z M246.09,55.006c-0.205-1.105-0.569-1.946-1.095-2.521
			c-0.521-0.576-1.316-0.862-2.382-0.862c-0.699,0-1.276,0.117-1.739,0.355c-0.461,0.233-0.833,0.526-1.108,0.873
			c-0.279,0.351-0.475,0.722-0.586,1.112c-0.113,0.388-0.178,0.737-0.199,1.043H246.09z"/>
		<path fill="#FFFFFF" d="M252.859,53.652c0.06-1.026,0.319-1.879,0.771-2.556c0.45-0.677,1.026-1.218,1.726-1.629
			c0.694-0.412,1.476-0.702,2.337-0.877c0.861-0.176,1.743-0.262,2.647-0.262c0.799,0,1.608,0.056,2.432,0.169
			c0.818,0.112,1.567,0.332,2.247,0.662c0.677,0.327,1.229,0.789,1.66,1.385c0.43,0.595,0.647,1.363,0.647,2.306v8.278
			c0,0.72,0.038,1.407,0.123,2.062c0.082,0.661,0.224,1.151,0.432,1.481h-4.433c-0.085-0.246-0.152-0.499-0.203-0.757
			c-0.047-0.257-0.085-0.516-0.104-0.783c-0.699,0.72-1.52,1.224-2.464,1.522c-0.942,0.296-1.907,0.448-2.891,0.448
			c-0.762,0-1.469-0.099-2.123-0.294c-0.657-0.194-1.235-0.486-1.726-0.878c-0.494-0.39-0.877-0.88-1.153-1.476
			c-0.276-0.598-0.418-1.303-0.418-2.123c0-0.906,0.155-1.647,0.463-2.233c0.307-0.584,0.719-1.052,1.23-1.398
			c0.514-0.35,1.093-0.612,1.741-0.788c0.644-0.174,1.305-0.309,1.985-0.414c0.678-0.102,1.32-0.183,1.938-0.245
			c0.616-0.063,1.165-0.155,1.646-0.276c0.479-0.124,0.865-0.304,1.156-0.541c0.284-0.234,0.428-0.577,0.428-1.029
			c0-0.472-0.078-0.846-0.23-1.125c-0.155-0.276-0.358-0.49-0.614-0.643c-0.26-0.154-0.553-0.26-0.895-0.311
			c-0.339-0.052-0.702-0.075-1.091-0.075c-0.844,0-1.515,0.183-2.016,0.555c-0.503,0.366-0.796,0.981-0.881,1.845H252.859z
			 M262.954,56.883c-0.183,0.164-0.414,0.293-0.693,0.386c-0.275,0.092-0.573,0.169-0.891,0.231
			c-0.319,0.063-0.657,0.11-1.015,0.154c-0.362,0.041-0.705,0.091-1.032,0.153c-0.35,0.063-0.677,0.145-0.983,0.245
			c-0.309,0.102-0.581,0.243-0.818,0.417c-0.234,0.174-0.427,0.399-0.568,0.677c-0.146,0.274-0.216,0.609-0.216,0.999
			c0,0.411,0.07,0.745,0.216,1.001c0.142,0.256,0.337,0.46,0.585,0.614c0.248,0.156,0.533,0.263,0.863,0.325
			c0.326,0.063,0.664,0.093,1.012,0.093c0.866,0,1.531-0.145,2.002-0.431c0.472-0.289,0.82-0.632,1.049-1.031
			c0.223-0.402,0.364-0.808,0.412-1.217c0.054-0.408,0.078-0.738,0.078-0.987V56.883z"/>
		<path fill="#FFFFFF" d="M281.546,54.362c-0.292-1.828-1.369-2.74-3.234-2.74c-0.697,0-1.284,0.157-1.755,0.476
			c-0.471,0.319-0.856,0.73-1.153,1.233c-0.295,0.501-0.509,1.06-0.632,1.675c-0.124,0.613-0.187,1.212-0.187,1.785
			c0,0.574,0.063,1.161,0.187,1.757c0.123,0.594,0.322,1.131,0.601,1.612c0.276,0.481,0.651,0.879,1.126,1.187
			c0.467,0.308,1.046,0.463,1.723,0.463c1.024,0,1.823-0.293,2.396-0.88c0.575-0.583,0.937-1.367,1.08-2.354h4.217
			c-0.289,2.114-1.11,3.729-2.464,4.847c-1.353,1.121-3.089,1.681-5.201,1.681c-1.213,0-2.31-0.204-3.293-0.601
			c-0.985-0.402-1.825-0.964-2.521-1.694c-0.699-0.728-1.244-1.588-1.632-2.586c-0.393-0.992-0.587-2.086-0.587-3.274
			c0-1.231,0.181-2.376,0.542-3.434c0.357-1.057,0.887-1.972,1.583-2.738c0.696-0.772,1.549-1.37,2.554-1.8
			c1.005-0.433,2.157-0.646,3.447-0.646c0.941,0,1.85,0.124,2.724,0.369c0.872,0.245,1.647,0.623,2.323,1.122
			c0.677,0.504,1.235,1.135,1.678,1.895c0.44,0.759,0.691,1.642,0.753,2.647H281.546z"/>
		<path fill="#FFFFFF" d="M288.375,42.697h4.37v8.275h0.093c0.552-0.899,1.261-1.567,2.12-1.997
			c0.865-0.433,1.707-0.646,2.527-0.646c1.166,0,2.125,0.16,2.875,0.478c0.751,0.316,1.34,0.756,1.771,1.324
			c0.431,0.561,0.733,1.248,0.904,2.061c0.176,0.812,0.266,1.709,0.266,2.692v9.788h-4.37v-8.991c0-1.31-0.212-2.288-0.63-2.937
			c-0.422-0.646-1.144-0.971-2.171-0.971c-1.192,0-2.052,0.355-2.585,1.063c-0.535,0.708-0.801,1.872-0.801,3.493v8.342h-4.37
			V42.697z"/>
		<path fill="#FFFFFF" d="M310.228,57.776c0.063,1.396,0.42,2.416,1.077,3.063c0.654,0.645,1.598,0.97,2.83,0.97
			c0.883,0,1.642-0.221,2.278-0.663c0.635-0.442,1.027-0.907,1.168-1.397h3.846c-0.614,1.885-1.557,3.25-2.828,4.09
			c-1.274,0.841-2.814,1.264-4.618,1.264c-1.253,0-2.381-0.208-3.384-0.614c-1.008-0.412-1.858-0.987-2.554-1.726
			c-0.701-0.739-1.236-1.619-1.619-2.645c-0.378-1.026-0.567-2.157-0.567-3.388c0-1.189,0.194-2.298,0.586-3.324
			c0.388-1.023,0.942-1.914,1.662-2.661c0.715-0.747,1.572-1.34,2.568-1.77c0.994-0.433,2.097-0.646,3.308-0.646
			c1.354,0,2.531,0.262,3.539,0.783c1.003,0.524,1.832,1.226,2.479,2.109c0.645,0.882,1.113,1.89,1.401,3.017
			c0.284,1.128,0.386,2.306,0.307,3.538H310.228z M317.335,55.006c-0.207-1.105-0.571-1.946-1.095-2.521
			c-0.521-0.576-1.314-0.862-2.382-0.862c-0.698,0-1.276,0.117-1.739,0.355c-0.463,0.233-0.832,0.526-1.107,0.873
			c-0.28,0.351-0.474,0.722-0.587,1.112c-0.113,0.388-0.178,0.737-0.197,1.043H317.335z"/>
		<path fill="#FFFFFF" d="M324.286,48.757h4.156v2.958h0.063c0.203-0.493,0.481-0.95,0.828-1.37c0.35-0.421,0.751-0.782,1.202-1.077
			c0.45-0.296,0.938-0.527,1.459-0.694c0.524-0.16,1.057-0.244,1.586-0.244c0.329,0,0.648,0.05,0.955,0.151v4.066
			c-0.206-0.043-0.45-0.079-0.737-0.107c-0.289-0.034-0.565-0.048-0.833-0.048c-0.802,0-1.477,0.133-2.029,0.397
			c-0.553,0.271-1.002,0.632-1.341,1.094c-0.338,0.463-0.58,1.004-0.722,1.629c-0.146,0.627-0.217,1.289-0.217,1.988v7.172h-4.37
			V48.757z"/>
	</g>
	<g>
		<g>
			<path fill="#FFFFFF" d="M2.739,46.891c0-25.169,20.409-45.579,45.586-45.579l0,0c25.167,0,45.575,20.409,45.575,45.579l0,0
				c0,25.176-20.408,45.572-45.575,45.586l0,0C23.148,92.463,2.739,72.066,2.739,46.891L2.739,46.891z M7.995,46.891
				c0.034,22.275,18.043,40.291,40.331,40.327l0,0c22.266-0.036,40.286-18.052,40.319-40.327l0,0
				C88.612,24.612,70.592,6.599,48.326,6.568l0,0C26.039,6.599,8.029,24.612,7.995,46.891L7.995,46.891z"/>
		</g>
		<g>
			<polygon fill="#FFFFFF" points="81.182,41.263 49.478,56.686 17.774,41.263 49.478,25.835 			"/>
			<path fill="#FFFFFF" d="M49.478,58.383L33.13,50.435v7.394c0,0,5.644,8.174,16.008,8.174c10.361,0,16.687-8.174,16.687-8.174
				v-7.394L49.478,58.383z"/>
			<g>
				<polygon fill="#FFFFFF" points="25.602,56.765 25.602,43.986 27.633,43.986 27.633,56.765 25.602,56.765 				"/>
			</g>
			<path fill="#FFFFFF" d="M28.386,57.57c0,0.99-0.801,1.789-1.788,1.789c-0.986,0-1.789-0.799-1.789-1.789
				c0-0.992,0.803-1.787,1.789-1.787C27.585,55.783,28.386,56.578,28.386,57.57z"/>
			<polygon fill="#FFFFFF" points="26.683,56.804 23.789,63.451 29.582,63.451 			"/>
		</g>
	</g>
	<g>
		<path fill="#FFFFFF" d="M105.692,89.091c-0.257-0.052-0.438-0.125-0.545-0.223c-0.109-0.099-0.152-0.269-0.132-0.521
			c0.011-0.16,0.066-0.287,0.17-0.375c0.102-0.087,0.227-0.152,0.376-0.199c0.148-0.045,0.307-0.079,0.477-0.102
			c0.17-0.021,0.327-0.04,0.47-0.062c0.389-0.705,0.786-1.407,1.192-2.1c0.405-0.691,0.812-1.345,1.224-1.962
			c0.175-0.257,0.349-0.513,0.523-0.77c0.175-0.254,0.34-0.494,0.5-0.716c0.16-0.22,0.303-0.417,0.431-0.593
			c0.128-0.175,0.233-0.315,0.316-0.431c0.196-0.165,0.379-0.246,0.552-0.246c0.104,0,0.224,0.02,0.362,0.063
			c0.139,0.043,0.267,0.098,0.385,0.169c0.118,0.072,0.216,0.16,0.293,0.263c0.076,0.102,0.108,0.219,0.1,0.352
			c-0.021,0.238-0.06,0.592-0.116,1.062c-0.058,0.473-0.115,0.983-0.178,1.527c-0.062,0.544-0.115,1.081-0.161,1.613
			c-0.047,0.532-0.069,0.976-0.069,1.325c0.203,0.008,0.388,0.015,0.546,0.015c0.159,0,0.292,0.009,0.4,0.03
			c0.107,0.02,0.189,0.064,0.246,0.13c0.056,0.067,0.086,0.17,0.086,0.301c0,0.176-0.074,0.311-0.216,0.409
			c-0.144,0.097-0.272,0.144-0.385,0.144c-0.093-0.02-0.183-0.033-0.269-0.039c-0.088-0.003-0.218-0.01-0.394-0.022
			c0.042,0.697,0.132,1.266,0.27,1.7c0.14,0.437,0.282,0.787,0.432,1.047c0.147,0.262,0.28,0.462,0.392,0.6
			c0.113,0.138,0.171,0.267,0.171,0.378c0,0.164-0.068,0.334-0.202,0.508c-0.132,0.172-0.302,0.263-0.506,0.263
			c-0.073,0-0.146-0.015-0.224-0.049c-0.076-0.027-0.156-0.084-0.238-0.169c-0.205-0.245-0.379-0.538-0.523-0.877
			c-0.144-0.338-0.262-0.695-0.355-1.068c-0.091-0.375-0.164-0.758-0.215-1.152c-0.05-0.396-0.081-0.767-0.093-1.118
			c-0.615,0.054-1.232,0.12-1.854,0.201c-0.62,0.084-1.239,0.223-1.854,0.414c-0.421,1.047-0.754,1.863-1,2.447
			c-0.245,0.587-0.405,1.001-0.476,1.247c-0.083,0.166-0.181,0.278-0.3,0.347c-0.118,0.066-0.244,0.1-0.378,0.1
			c-0.205,0-0.363-0.063-0.477-0.185c-0.113-0.124-0.169-0.282-0.169-0.479c0-0.079,0.015-0.191,0.047-0.335
			c0.091-0.195,0.194-0.415,0.307-0.654c0.111-0.243,0.227-0.488,0.345-0.739c0.119-0.251,0.24-0.507,0.363-0.764
			C105.461,89.541,105.58,89.305,105.692,89.091z M110.785,87.027c0-0.286,0.014-0.633,0.04-1.03c0.024-0.4,0.053-0.817,0.083-1.247
			c0.031-0.431,0.062-0.856,0.093-1.277c0.031-0.423,0.056-0.801,0.077-1.139c-0.522,0.596-1.054,1.325-1.591,2.193
			c-0.539,0.866-1.091,1.824-1.655,2.87c0.255-0.042,0.53-0.076,0.823-0.108c0.293-0.032,0.577-0.054,0.853-0.068
			c0.278-0.016,0.532-0.03,0.763-0.039c0.231-0.013,0.403-0.015,0.515-0.015V87.027z"/>
		<path fill="#FFFFFF" d="M115.896,85.718c-0.074,0.115-0.152,0.296-0.238,0.547c-0.089,0.251-0.173,0.53-0.255,0.832
			c-0.081,0.304-0.156,0.598-0.223,0.882c-0.066,0.291-0.116,0.525-0.146,0.711c-0.01,0.082-0.028,0.197-0.054,0.353
			c-0.025,0.151-0.051,0.324-0.076,0.507c-0.026,0.187-0.049,0.373-0.069,0.562c-0.021,0.192-0.038,0.358-0.048,0.502
			c0.36-0.626,0.715-1.244,1.063-1.855c0.347-0.608,0.718-1.155,1.107-1.638c0.082-0.102,0.171-0.212,0.269-0.329
			c0.099-0.12,0.206-0.227,0.325-0.325c0.116-0.097,0.248-0.181,0.392-0.245c0.144-0.068,0.303-0.099,0.478-0.099
			c0.245,0,0.436,0.062,0.568,0.19c0.134,0.128,0.234,0.277,0.3,0.452c0.066,0.174,0.105,0.357,0.116,0.547
			c0.01,0.188,0.016,0.353,0.016,0.485c0,0.392-0.019,0.78-0.054,1.17c-0.037,0.389-0.055,0.778-0.055,1.17
			c0,0.482,0.034,0.841,0.1,1.077c0.066,0.234,0.142,0.412,0.225,0.53c0.08,0.119,0.156,0.218,0.223,0.293
			c0.066,0.076,0.099,0.201,0.099,0.375c0,0.113-0.05,0.229-0.155,0.347c-0.101,0.118-0.214,0.187-0.338,0.206
			c-0.205,0.023-0.385-0.034-0.539-0.166c-0.153-0.136-0.282-0.313-0.383-0.548c-0.104-0.231-0.182-0.49-0.238-0.783
			c-0.058-0.294-0.086-0.592-0.086-0.899c0-0.493,0.038-0.983,0.116-1.477c0.077-0.491,0.117-0.951,0.117-1.371
			c0-0.145,0-0.291,0-0.438c0-0.152-0.027-0.214-0.08-0.192c-0.174,0.092-0.367,0.261-0.576,0.506
			c-0.21,0.248-0.423,0.535-0.639,0.863c-0.215,0.329-0.431,0.68-0.646,1.054c-0.217,0.375-0.417,0.733-0.601,1.074
			c-0.185,0.348-0.349,0.654-0.493,0.929c-0.144,0.271-0.251,0.464-0.323,0.589c-0.062,0.112-0.188,0.166-0.376,0.163
			c-0.192-0.006-0.374-0.03-0.547-0.07c-0.153-0.031-0.276-0.102-0.37-0.209c-0.091-0.104-0.138-0.231-0.138-0.378
			c0-0.14,0.019-0.326,0.054-0.558c0.036-0.234,0.074-0.511,0.116-0.84c0.041-0.379,0.079-0.698,0.114-0.957
			c0.037-0.253,0.076-0.499,0.116-0.73c0.042-0.228,0.086-0.47,0.132-0.729c0.045-0.257,0.104-0.569,0.175-0.939
			c0.052-0.253,0.099-0.493,0.139-0.714c0.041-0.223,0.09-0.414,0.146-0.578c0.056-0.162,0.123-0.293,0.198-0.385
			c0.078-0.091,0.173-0.138,0.287-0.138c0.122,0,0.229,0.023,0.321,0.075c0.093,0.054,0.17,0.115,0.232,0.187
			c0.06,0.069,0.11,0.146,0.145,0.223C115.877,85.602,115.896,85.667,115.896,85.718z"/>
		<path fill="#FFFFFF" d="M128.39,81.856c-0.258,0.576-0.516,1.236-0.779,1.985c-0.26,0.751-0.498,1.521-0.708,2.316
			c-0.21,0.794-0.382,1.589-0.514,2.38c-0.134,0.788-0.202,1.508-0.202,2.165c0,0.271,0.014,0.502,0.039,0.71
			c0.027,0.203,0.06,0.334,0.101,0.383c0.102,0.052,0.2,0.063,0.293,0.032c0.091-0.032,0.179-0.071,0.261-0.122
			c0.082-0.053,0.165-0.104,0.245-0.154c0.083-0.054,0.165-0.076,0.247-0.076c0.144,0,0.256,0.031,0.34,0.098
			c0.08,0.068,0.101,0.174,0.06,0.316c-0.031,0.112-0.091,0.231-0.185,0.355c-0.093,0.121-0.204,0.234-0.33,0.335
			c-0.13,0.105-0.275,0.189-0.44,0.255c-0.163,0.067-0.328,0.101-0.492,0.101c-0.297,0-0.526-0.072-0.685-0.223
			c-0.16-0.15-0.278-0.324-0.354-0.521c-0.078-0.204-0.12-0.406-0.132-0.619c-0.009-0.21-0.014-0.377-0.014-0.501
			c0-0.224,0.007-0.446,0.022-0.669c0.016-0.22,0.034-0.437,0.056-0.65c-0.268,0.377-0.568,0.758-0.901,1.144
			c-0.334,0.388-0.691,0.743-1.071,1.069c-0.204,0.176-0.431,0.342-0.678,0.494c-0.245,0.154-0.531,0.231-0.86,0.231
			c-0.256,0-0.473-0.066-0.646-0.192c-0.176-0.129-0.314-0.294-0.417-0.493c-0.102-0.201-0.177-0.42-0.222-0.663
			c-0.047-0.24-0.07-0.474-0.07-0.699c0-0.617,0.112-1.195,0.339-1.748c0.224-0.551,0.506-1.046,0.844-1.491
			c0.34-0.445,0.707-0.835,1.101-1.162c0.395-0.331,0.757-0.581,1.084-0.756c0.185-0.1,0.382-0.191,0.594-0.269
			c0.21-0.076,0.479-0.116,0.806-0.116c0.228,0.021,0.417,0.078,0.57,0.17c0.154,0.094,0.278,0.201,0.37,0.325
			c0.052-0.187,0.103-0.381,0.154-0.585c0.052-0.205,0.113-0.428,0.186-0.662c0.173-0.616,0.332-1.187,0.477-1.718
			c0.143-0.526,0.256-0.923,0.338-1.188c0.05-0.175,0.138-0.303,0.262-0.378c0.123-0.079,0.245-0.115,0.368-0.115
			c0.175,0,0.327,0.036,0.454,0.115c0.129,0.075,0.192,0.205,0.192,0.392c0,0.05-0.011,0.119-0.038,0.2
			C128.432,81.738,128.41,81.808,128.39,81.856z M125.788,86.674c-0.163,0.05-0.285,0.063-0.362,0.028
			c-0.076-0.028-0.139-0.073-0.192-0.13c-0.052-0.057-0.101-0.112-0.146-0.17c-0.045-0.053-0.115-0.084-0.208-0.084
			c-0.358,0-0.744,0.155-1.155,0.463c-0.41,0.309-0.788,0.688-1.13,1.139c-0.342,0.451-0.629,0.933-0.854,1.446
			c-0.224,0.513-0.338,0.974-0.338,1.385c0,0.09,0.009,0.19,0.024,0.302c0.014,0.107,0.038,0.208,0.069,0.307
			c0.031,0.099,0.069,0.175,0.116,0.237c0.045,0.062,0.1,0.093,0.161,0.093c0.124,0,0.269-0.05,0.438-0.155
			c0.169-0.102,0.352-0.236,0.546-0.406c0.196-0.172,0.395-0.358,0.601-0.561c0.206-0.206,0.395-0.417,0.569-0.631
			c0.216-0.257,0.415-0.499,0.592-0.722c0.179-0.229,0.347-0.463,0.5-0.711c0.154-0.246,0.296-0.515,0.425-0.807
			C125.57,87.404,125.686,87.063,125.788,86.674z"/>
		<path fill="#FFFFFF" d="M130.206,85.828c-0.144,0.349-0.258,0.67-0.338,0.971c-0.083,0.295-0.149,0.58-0.2,0.851
			c-0.052,0.271-0.093,0.544-0.125,0.81c-0.031,0.268-0.06,0.544-0.091,0.831c0.175-0.412,0.329-0.768,0.461-1.063
			c0.133-0.297,0.254-0.56,0.362-0.784c0.109-0.226,0.21-0.42,0.307-0.587c0.098-0.163,0.204-0.322,0.315-0.476
			c0.083-0.122,0.178-0.252,0.286-0.384c0.108-0.133,0.231-0.26,0.377-0.375c0.143-0.12,0.31-0.215,0.5-0.289
			c0.188-0.069,0.407-0.106,0.652-0.106c0.216,0,0.391,0.037,0.523,0.106c0.134,0.074,0.234,0.153,0.3,0.249
			c0.068,0.09,0.111,0.176,0.133,0.251c0.018,0.076,0.029,0.121,0.029,0.132c0,0.114-0.025,0.209-0.078,0.285
			c-0.05,0.077-0.116,0.14-0.191,0.185c-0.078,0.047-0.158,0.079-0.245,0.1c-0.088,0.021-0.168,0.033-0.24,0.033
			c-0.082,0-0.158-0.03-0.231-0.086c-0.069-0.056-0.136-0.087-0.198-0.087c-0.237,0-0.479,0.127-0.73,0.38
			c-0.252,0.251-0.496,0.569-0.731,0.96c-0.235,0.392-0.459,0.822-0.668,1.294c-0.212,0.471-0.394,0.927-0.548,1.367
			c-0.154,0.443-0.276,0.844-0.37,1.201c-0.092,0.36-0.137,0.614-0.137,0.77c0,0.234-0.153,0.354-0.462,0.354
			c-0.206,0-0.382-0.032-0.532-0.1c-0.147-0.064-0.234-0.175-0.252-0.333c0.04-0.54,0.104-1.102,0.192-1.68
			c0.087-0.581,0.176-1.159,0.269-1.739c0.092-0.582,0.174-1.155,0.245-1.718c0.072-0.564,0.109-1.108,0.109-1.631
			c0-0.112,0.079-0.203,0.237-0.27c0.16-0.068,0.286-0.1,0.377-0.1c0.268,0,0.45,0.074,0.547,0.221
			C130.156,85.523,130.206,85.672,130.206,85.828z"/>
		<path fill="#FFFFFF" d="M136.945,84.811c0.185,0,0.354,0.041,0.516,0.122c0.158,0.086,0.292,0.193,0.407,0.334
			c0.113,0.138,0.203,0.293,0.269,0.459c0.066,0.17,0.101,0.348,0.101,0.533c0,0.296-0.062,0.585-0.185,0.86
			c-0.124,0.278-0.269,0.538-0.438,0.784c-0.169,0.247-0.339,0.466-0.507,0.656c-0.17,0.188-0.306,0.341-0.409,0.451
			c-0.082,0.093-0.204,0.218-0.369,0.369c-0.164,0.156-0.356,0.304-0.578,0.454c-0.221,0.15-0.459,0.276-0.714,0.386
			c-0.258,0.108-0.523,0.162-0.801,0.162c-0.144,0-0.282-0.018-0.415-0.054c-0.135-0.037-0.254-0.088-0.355-0.164
			c-0.01,0.115-0.004,0.268,0.017,0.457c0.018,0.188,0.07,0.374,0.154,0.561c0.081,0.184,0.203,0.344,0.368,0.477
			c0.164,0.134,0.385,0.2,0.663,0.2c0.143,0,0.308-0.025,0.492-0.075c0.514-0.144,0.901-0.325,1.169-0.548
			c0.266-0.223,0.479-0.441,0.638-0.668c0.16-0.228,0.298-0.426,0.416-0.601c0.118-0.176,0.279-0.287,0.485-0.341
			c0.144-0.028,0.263-0.026,0.354,0.011c0.093,0.034,0.138,0.144,0.138,0.33c0,0.079-0.028,0.195-0.084,0.339
			c-0.058,0.143-0.135,0.302-0.239,0.467c-0.102,0.169-0.217,0.339-0.346,0.503c-0.128,0.163-0.269,0.313-0.423,0.445
			c-0.329,0.288-0.711,0.544-1.147,0.77c-0.436,0.223-0.894,0.338-1.376,0.338c-0.369,0-0.682-0.059-0.939-0.178
			c-0.255-0.117-0.466-0.265-0.631-0.445c-0.164-0.18-0.29-0.377-0.383-0.595c-0.092-0.211-0.158-0.42-0.2-0.615
			c-0.041-0.192-0.065-0.362-0.069-0.504c-0.006-0.146-0.007-0.237-0.007-0.278c0-0.709,0.145-1.388,0.437-2.039
			c0.293-0.652,0.66-1.228,1.101-1.723c0.441-0.5,0.92-0.897,1.439-1.193C136.009,84.962,136.494,84.811,136.945,84.811z
			 M137.114,86.336c0-0.133-0.045-0.218-0.138-0.255c-0.092-0.034-0.2-0.043-0.324-0.017c-0.123,0.024-0.252,0.067-0.386,0.124
			c-0.133,0.057-0.245,0.107-0.338,0.147c-0.276,0.132-0.527,0.301-0.754,0.508c-0.225,0.205-0.427,0.428-0.608,0.67
			c-0.179,0.239-0.335,0.484-0.468,0.735c-0.134,0.252-0.247,0.496-0.338,0.734c0.071-0.034,0.129-0.036,0.178-0.009
			c0.045,0.026,0.083,0.063,0.114,0.104c0.029,0.049,0.068,0.094,0.107,0.137c0.041,0.039,0.098,0.062,0.169,0.062
			c0.153,0,0.316-0.038,0.485-0.102c0.169-0.067,0.328-0.146,0.476-0.24c0.149-0.09,0.285-0.191,0.408-0.298
			c0.125-0.111,0.227-0.204,0.309-0.289c0.072-0.078,0.172-0.199,0.299-0.358c0.129-0.16,0.252-0.334,0.371-0.523
			s0.22-0.385,0.308-0.586C137.07,86.683,137.114,86.498,137.114,86.336z"/>
		<path fill="#FFFFFF" d="M140.705,86.736c-0.098,0.236-0.194,0.49-0.291,0.758c-0.097,0.272-0.188,0.541-0.271,0.813
			c-0.082,0.264-0.138,0.481-0.169,0.643c-0.062,0.392-0.108,0.783-0.138,1.179c-0.031,0.395-0.004,0.79,0.076,1.175
			c0.134-0.008,0.279-0.07,0.44-0.184c0.158-0.111,0.312-0.241,0.461-0.383c0.149-0.146,0.279-0.293,0.394-0.448
			c0.112-0.152,0.198-0.276,0.259-0.369c0.062-0.103,0.135-0.239,0.218-0.415c0.082-0.172,0.16-0.365,0.238-0.569
			c0.078-0.202,0.145-0.421,0.208-0.648c0.062-0.223,0.103-0.449,0.122-0.676l0.031-0.309c0.021-0.244,0.103-0.422,0.247-0.527
			c0.144-0.108,0.287-0.162,0.431-0.162c0.142,0,0.275,0.041,0.391,0.124c0.118,0.081,0.164,0.231,0.132,0.445
			c-0.062,0.42-0.128,0.907-0.2,1.46c-0.071,0.552-0.107,1.139-0.107,1.754c0,0.194,0.007,0.392,0.021,0.587
			c0.017,0.194,0.04,0.368,0.071,0.521c0.031,0.155,0.072,0.28,0.124,0.37c0.05,0.093,0.114,0.142,0.184,0.142
			c0.125,0,0.285-0.054,0.485-0.165c0.199-0.106,0.357-0.201,0.469-0.284c0.166-0.125,0.336-0.313,0.515-0.57
			c0.18-0.255,0.347-0.555,0.501-0.896c0.154-0.338,0.279-0.707,0.377-1.107c0.096-0.404,0.145-0.805,0.145-1.204
			c0-0.391-0.046-0.694-0.138-0.912c-0.093-0.214-0.192-0.387-0.299-0.516c-0.108-0.127-0.206-0.242-0.292-0.347
			c-0.088-0.104-0.13-0.237-0.13-0.403c0-0.121,0.04-0.237,0.123-0.336c0.081-0.104,0.21-0.157,0.383-0.157
			c0.153,0,0.316,0.06,0.485,0.178c0.169,0.117,0.321,0.287,0.454,0.499c0.134,0.217,0.244,0.481,0.331,0.792
			c0.087,0.315,0.129,0.664,0.129,1.057c0,0.553-0.085,1.123-0.26,1.71c-0.176,0.584-0.395,1.11-0.662,1.585
			c-0.175,0.315-0.358,0.58-0.547,0.783c-0.189,0.204-0.371,0.378-0.545,0.524c-0.063,0.048-0.146,0.119-0.247,0.2
			c-0.102,0.079-0.218,0.155-0.346,0.231c-0.129,0.07-0.276,0.133-0.439,0.184c-0.164,0.05-0.338,0.075-0.521,0.075
			c-0.041,0-0.083,0-0.125,0c-0.042,0-0.087-0.009-0.138-0.03c-0.236-0.082-0.426-0.22-0.568-0.415
			c-0.145-0.2-0.255-0.418-0.332-0.662c-0.077-0.246-0.129-0.508-0.154-0.784c-0.027-0.279-0.039-0.533-0.039-0.77
			c-0.093,0.226-0.221,0.468-0.385,0.729c-0.165,0.261-0.34,0.494-0.523,0.702c-0.257,0.223-0.529,0.401-0.814,0.536
			c-0.288,0.131-0.55,0.194-0.786,0.194c-0.37,0-0.61-0.121-0.723-0.366c-0.113-0.242-0.17-0.606-0.17-1.088
			c0-0.42,0.036-0.838,0.107-1.247s0.133-0.732,0.185-0.97c0.031-0.164,0.081-0.387,0.146-0.671
			c0.066-0.279,0.139-0.574,0.216-0.883c0.076-0.307,0.153-0.598,0.229-0.871c0.077-0.271,0.141-0.484,0.192-0.637
			c0.063-0.103,0.17-0.156,0.324-0.156c0.091,0,0.186,0.025,0.278,0.074c0.091,0.042,0.173,0.096,0.245,0.157
			c0.071,0.063,0.128,0.13,0.169,0.201c0.042,0.072,0.062,0.129,0.062,0.169v0.063C140.882,86.323,140.803,86.498,140.705,86.736z"
			/>
		<path fill="#FFFFFF" d="M158.394,83.349c0.02-0.124,0.017-0.247-0.008-0.374c-0.026-0.131-0.084-0.244-0.177-0.343
			c-0.091-0.095-0.221-0.178-0.385-0.238c-0.164-0.06-0.37-0.091-0.616-0.091c-0.288,0-0.605,0.057-0.955,0.169
			c-0.348,0.115-0.702,0.266-1.062,0.454c-0.358,0.188-0.71,0.412-1.053,0.663c-0.344,0.251-0.65,0.521-0.915,0.806
			c-0.268,0.288-0.48,0.587-0.64,0.894c-0.159,0.309-0.237,0.604-0.237,0.895c0,0.234,0.078,0.446,0.237,0.635
			c0.16,0.191,0.332,0.339,0.516,0.439c0.215,0.113,0.567,0.201,1.055,0.264c0.486,0.061,1.048,0.165,1.685,0.307
			c0.215,0.053,0.46,0.124,0.731,0.214c0.271,0.093,0.53,0.226,0.775,0.395c0.247,0.169,0.454,0.375,0.625,0.623
			c0.168,0.246,0.252,0.539,0.252,0.878c0,0.255-0.04,0.49-0.123,0.698c-0.083,0.213-0.185,0.4-0.308,0.562
			c-0.123,0.167-0.254,0.305-0.392,0.422c-0.138,0.12-0.259,0.215-0.362,0.285c-0.513,0.361-1.055,0.612-1.623,0.754
			c-0.57,0.146-1.127,0.216-1.67,0.216c-0.555,0-1.008-0.063-1.361-0.196c-0.356-0.139-0.637-0.294-0.848-0.479
			c-0.21-0.183-0.356-0.375-0.437-0.579c-0.083-0.199-0.124-0.36-0.124-0.484c0-0.09,0.025-0.171,0.076-0.237
			c0.052-0.066,0.114-0.12,0.185-0.16c0.073-0.042,0.146-0.07,0.223-0.087c0.078-0.015,0.141-0.023,0.193-0.023
			c0.164,0,0.296,0.08,0.394,0.234c0.097,0.156,0.202,0.327,0.314,0.514c0.082,0.124,0.255,0.251,0.516,0.383
			c0.262,0.129,0.567,0.195,0.915,0.195c0.328,0,0.689-0.049,1.086-0.142c0.394-0.09,0.761-0.22,1.099-0.383
			c0.338-0.167,0.623-0.364,0.853-0.596c0.233-0.228,0.348-0.484,0.348-0.761c0-0.165-0.083-0.31-0.247-0.437
			c-0.165-0.134-0.375-0.246-0.631-0.352c-0.257-0.1-0.545-0.19-0.87-0.27c-0.321-0.075-0.64-0.144-0.953-0.206
			c-0.315-0.063-0.607-0.118-0.884-0.169c-0.278-0.054-0.503-0.101-0.678-0.154c-0.154-0.04-0.323-0.119-0.507-0.238
			c-0.185-0.117-0.359-0.271-0.525-0.447c-0.164-0.181-0.302-0.39-0.415-0.632s-0.169-0.519-0.169-0.826
			c0-0.421,0.092-0.849,0.276-1.277c0.185-0.431,0.429-0.84,0.731-1.231c0.302-0.391,0.658-0.757,1.062-1.095
			c0.406-0.342,0.829-0.632,1.269-0.877c0.443-0.248,0.887-0.445,1.339-0.587c0.452-0.143,0.881-0.217,1.293-0.217
			c0.523,0,0.942,0.078,1.254,0.231c0.313,0.155,0.55,0.35,0.715,0.583c0.164,0.238,0.268,0.497,0.316,0.778
			c0.047,0.283,0.068,0.548,0.068,0.792c0,0.238-0.036,0.424-0.105,0.556c-0.074,0.133-0.161,0.231-0.262,0.29
			c-0.103,0.063-0.206,0.1-0.308,0.114c-0.103,0.019-0.19,0.025-0.263,0.025c-0.204,0-0.322-0.079-0.354-0.246
			C158.302,84.018,158.321,83.742,158.394,83.349z"/>
		<path fill="#FFFFFF" d="M159.378,85.997c0.114-0.043,0.251-0.079,0.416-0.107c0.163-0.033,0.317-0.057,0.462-0.077
			c0.133-0.453,0.27-0.907,0.407-1.372c0.139-0.46,0.311-0.945,0.516-1.462c0.103-0.235,0.209-0.402,0.324-0.498
			c0.112-0.099,0.236-0.146,0.368-0.146c0.453,0,0.662,0.183,0.631,0.555c0,0.161-0.041,0.328-0.123,0.491
			c-0.185,0.369-0.35,0.759-0.492,1.17c-0.144,0.412-0.262,0.781-0.355,1.108c0.155-0.012,0.315-0.02,0.484-0.031
			c0.171-0.011,0.332-0.022,0.485-0.03c0.154-0.011,0.291-0.017,0.408-0.023c0.118-0.005,0.203-0.009,0.255-0.009
			c0.113,0,0.21,0.058,0.291,0.169c0.083,0.114,0.124,0.227,0.124,0.34c-0.01,0.104-0.076,0.172-0.2,0.205
			c-0.123,0.04-0.288,0.063-0.492,0.079c-0.206,0.017-0.448,0.032-0.73,0.045c-0.284,0.017-0.583,0.049-0.901,0.103
			c-0.062,0.193-0.129,0.414-0.208,0.662c-0.076,0.245-0.152,0.501-0.223,0.775c-0.073,0.271-0.142,0.55-0.208,0.829
			c-0.066,0.284-0.12,0.555-0.161,0.813c-0.021,0.132-0.045,0.273-0.07,0.428c-0.024,0.152-0.044,0.313-0.053,0.479
			c-0.011,0.161-0.011,0.324,0,0.485c0.009,0.155,0.03,0.299,0.061,0.423c0.031,0.121,0.076,0.219,0.138,0.299
			c0.063,0.076,0.148,0.112,0.263,0.112c0.185,0,0.342-0.024,0.477-0.081c0.133-0.06,0.246-0.119,0.337-0.178
			c0.093-0.063,0.174-0.121,0.247-0.178c0.071-0.056,0.143-0.085,0.216-0.085c0.133,0,0.251,0.045,0.352,0.13
			c0.104,0.088,0.149,0.197,0.14,0.329c0,0.168-0.093,0.315-0.278,0.449c-0.061,0.04-0.143,0.093-0.245,0.16
			c-0.104,0.068-0.224,0.133-0.362,0.195c-0.138,0.062-0.288,0.115-0.447,0.16c-0.158,0.045-0.325,0.068-0.499,0.068
			c-0.399,0-0.702-0.107-0.907-0.33c-0.207-0.223-0.351-0.478-0.431-0.771c-0.083-0.293-0.125-0.583-0.132-0.877
			c-0.004-0.293-0.001-0.504,0.008-0.64c0.011-0.285,0.044-0.583,0.101-0.896c0.056-0.316,0.118-0.624,0.184-0.926
			c0.066-0.305,0.133-0.59,0.201-0.863c0.066-0.271,0.125-0.505,0.176-0.698c-0.082,0.02-0.148,0.03-0.199,0.03
			c-0.174,0-0.338-0.03-0.492-0.091c-0.154-0.062-0.227-0.166-0.216-0.307C159.025,86.229,159.143,86.087,159.378,85.997z"/>
		<path fill="#FFFFFF" d="M167.333,84.811c0.186,0,0.358,0.041,0.519,0.122c0.158,0.086,0.293,0.193,0.406,0.334
			c0.113,0.138,0.204,0.293,0.271,0.459c0.067,0.17,0.102,0.348,0.102,0.533c0,0.296-0.062,0.585-0.186,0.86
			c-0.125,0.278-0.271,0.538-0.44,0.784c-0.169,0.247-0.338,0.466-0.507,0.656c-0.169,0.188-0.305,0.341-0.406,0.451
			c-0.084,0.093-0.208,0.218-0.372,0.369c-0.163,0.156-0.355,0.304-0.575,0.454c-0.22,0.15-0.46,0.276-0.716,0.386
			c-0.257,0.108-0.523,0.162-0.8,0.162c-0.145,0-0.281-0.018-0.416-0.054c-0.134-0.037-0.252-0.088-0.354-0.164
			c-0.011,0.115-0.005,0.268,0.016,0.457c0.02,0.188,0.07,0.374,0.153,0.561c0.082,0.184,0.205,0.344,0.369,0.477
			c0.165,0.134,0.385,0.2,0.662,0.2c0.144,0,0.307-0.025,0.493-0.075c0.513-0.144,0.902-0.325,1.167-0.548
			c0.268-0.223,0.479-0.441,0.641-0.668c0.158-0.228,0.296-0.426,0.414-0.601c0.119-0.176,0.283-0.287,0.485-0.341
			c0.144-0.028,0.262-0.026,0.355,0.011c0.09,0.034,0.138,0.144,0.138,0.33c0,0.079-0.028,0.195-0.084,0.339
			c-0.059,0.143-0.138,0.302-0.24,0.467c-0.101,0.169-0.216,0.339-0.343,0.503c-0.13,0.163-0.271,0.313-0.423,0.445
			c-0.33,0.288-0.713,0.544-1.15,0.77c-0.434,0.223-0.891,0.338-1.374,0.338c-0.371,0-0.685-0.059-0.94-0.178
			c-0.256-0.117-0.468-0.265-0.631-0.445c-0.163-0.18-0.292-0.377-0.385-0.595c-0.091-0.211-0.157-0.42-0.199-0.615
			c-0.042-0.192-0.065-0.362-0.07-0.504c-0.006-0.146-0.007-0.237-0.007-0.278c0-0.709,0.146-1.388,0.438-2.039
			c0.292-0.652,0.659-1.228,1.102-1.723c0.44-0.5,0.92-0.897,1.438-1.193C166.397,84.962,166.882,84.811,167.333,84.811z
			 M167.504,86.336c0-0.133-0.048-0.218-0.138-0.255c-0.093-0.034-0.2-0.043-0.324-0.017c-0.125,0.024-0.251,0.067-0.387,0.124
			c-0.132,0.057-0.242,0.107-0.338,0.147c-0.276,0.132-0.527,0.301-0.752,0.508c-0.226,0.205-0.427,0.428-0.607,0.67
			c-0.179,0.239-0.335,0.484-0.47,0.735c-0.133,0.252-0.247,0.496-0.338,0.734c0.071-0.034,0.13-0.036,0.177-0.009
			c0.046,0.026,0.084,0.063,0.115,0.104c0.03,0.049,0.066,0.094,0.106,0.137c0.042,0.039,0.098,0.062,0.17,0.062
			c0.154,0,0.315-0.038,0.485-0.102c0.169-0.067,0.33-0.146,0.477-0.24c0.15-0.09,0.285-0.191,0.406-0.298
			c0.125-0.111,0.229-0.204,0.311-0.289c0.073-0.078,0.171-0.199,0.298-0.358c0.13-0.16,0.251-0.334,0.37-0.523
			c0.118-0.189,0.22-0.385,0.307-0.586C167.459,86.683,167.504,86.498,167.504,86.336z"/>
		<path fill="#FFFFFF" d="M173.104,81.485c0,0.084-0.014,0.19-0.039,0.318s-0.063,0.248-0.116,0.361
			c-0.256,0.583-0.499,1.187-0.73,1.808c-0.23,0.624-0.442,1.249-0.64,1.884c-0.326,1.079-0.581,2.113-0.767,3.109
			c-0.022,0.073-0.045,0.195-0.071,0.369c-0.025,0.175-0.05,0.373-0.075,0.593c-0.027,0.219-0.045,0.448-0.058,0.685
			c-0.009,0.236,0,0.451,0.034,0.646c0.028,0.197,0.082,0.353,0.152,0.477c0.074,0.124,0.182,0.187,0.325,0.187
			c0.141,0,0.244-0.02,0.307-0.063c0.063-0.039,0.11-0.088,0.144-0.138c0.04-0.051,0.077-0.099,0.11-0.139
			c0.037-0.041,0.102-0.062,0.191-0.062c0.124,0,0.238,0.04,0.339,0.124c0.104,0.081,0.151,0.184,0.151,0.308
			c0,0.16-0.036,0.305-0.12,0.423c-0.082,0.118-0.189,0.214-0.316,0.293c-0.126,0.076-0.262,0.135-0.409,0.175
			c-0.141,0.042-0.276,0.063-0.396,0.063c-0.451,0-0.791-0.145-1.02-0.433c-0.226-0.284-0.37-0.65-0.444-1.099
			c-0.07-0.445-0.085-0.942-0.04-1.491c0.048-0.548,0.119-1.086,0.217-1.61c0.099-0.522,0.204-1.001,0.316-1.436
			c0.11-0.439,0.2-0.772,0.263-1.009c0.203-0.771,0.423-1.506,0.659-2.209c0.237-0.704,0.454-1.33,0.648-1.883
			c0.204-0.587,0.451-0.866,0.739-0.831c0.175,0.019,0.324,0.058,0.45,0.114C173.04,81.077,173.104,81.23,173.104,81.485z"/>
		<path fill="#FFFFFF" d="M174.74,87.043c-0.104,0.369-0.203,0.756-0.291,1.161c-0.087,0.406-0.161,0.807-0.216,1.207
			c-0.058,0.403-0.097,0.744-0.132,1.032c0.362-0.738,0.688-1.455,0.994-2.146c0.301-0.693,0.646-1.323,1.023-1.884
			c0.164-0.251,0.353-0.512,0.561-0.787c0.211-0.276,0.487-0.532,0.838-0.77c0.043-0.02,0.096-0.045,0.158-0.068
			c0.06-0.027,0.132-0.039,0.211-0.039c0.035,0,0.071,0,0.116,0c0.048,0,0.087,0.009,0.115,0.03l0.033,0.015h0.043
			c0.236,0.091,0.395,0.24,0.471,0.438c0.076,0.2,0.135,0.369,0.178,0.501c0.02,0.145,0.034,0.289,0.039,0.43
			c0.006,0.146,0.009,0.288,0.009,0.434c0,0.3-0.021,0.59-0.063,0.877c-0.042,0.288-0.084,0.567-0.124,0.847l-0.217,1.706
			c0.105-0.212,0.226-0.474,0.364-0.775c0.135-0.304,0.287-0.609,0.445-0.917s0.324-0.604,0.493-0.882
			c0.166-0.285,0.339-0.522,0.514-0.716c0.115-0.114,0.257-0.247,0.431-0.396c0.176-0.146,0.398-0.22,0.662-0.22h0.107
			c0.195,0.05,0.351,0.129,0.461,0.236c0.115,0.107,0.2,0.229,0.256,0.37c0.057,0.138,0.091,0.285,0.099,0.439
			c0.009,0.154,0.013,0.302,0.013,0.443c0,0.507-0.023,1.057-0.081,1.658c-0.055,0.597-0.09,1.17-0.101,1.714
			c0,0.45,0.025,0.769,0.079,0.961c0.05,0.191,0.115,0.33,0.191,0.423c0.076,0.094,0.146,0.169,0.214,0.231
			c0.068,0.06,0.115,0.191,0.147,0.386c0.02,0.091-0.006,0.192-0.086,0.299c-0.075,0.107-0.21,0.161-0.405,0.161
			c-0.257,0-0.464-0.073-0.625-0.214c-0.158-0.146-0.279-0.324-0.359-0.538c-0.084-0.219-0.141-0.446-0.172-0.691
			c-0.03-0.252-0.045-0.479-0.045-0.697c0-0.078,0.012-0.241,0.039-0.484c0.023-0.239,0.058-0.513,0.091-0.82
			c0.037-0.308,0.07-0.632,0.107-0.97c0.039-0.339,0.062-0.649,0.075-0.934c0.018-0.279,0.018-0.514,0-0.697
			c-0.014-0.186-0.047-0.278-0.096-0.278c-0.062,0-0.16,0.085-0.293,0.245c-0.236,0.299-0.479,0.653-0.725,1.063
			s-0.479,0.82-0.702,1.233c-0.218,0.408-0.416,0.788-0.589,1.139c-0.174,0.351-0.315,0.609-0.414,0.783
			c-0.085,0.144-0.193,0.246-0.328,0.308c-0.133,0.063-0.257,0.09-0.369,0.09c-0.151,0-0.279-0.033-0.383-0.106
			c-0.103-0.071-0.142-0.215-0.121-0.433c0.04-0.357,0.095-0.734,0.16-1.127c0.067-0.398,0.133-0.799,0.192-1.21
			c0.062-0.409,0.111-0.825,0.151-1.246c0.041-0.421,0.063-0.845,0.063-1.277c0-0.235-0.015-0.397-0.042-0.493
			c-0.034-0.09-0.077-0.139-0.124-0.139c-0.052,0-0.114,0.032-0.189,0.094c-0.071,0.064-0.147,0.141-0.229,0.231
			c-0.082,0.092-0.16,0.191-0.236,0.299c-0.079,0.11-0.149,0.214-0.209,0.316c-0.249,0.392-0.466,0.761-0.662,1.116
			c-0.195,0.355-0.384,0.707-0.562,1.06c-0.181,0.355-0.358,0.725-0.533,1.108c-0.172,0.386-0.364,0.81-0.566,1.268
			c-0.144,0.323-0.288,0.542-0.424,0.672c-0.138,0.13-0.357,0.166-0.656,0.116c-0.141-0.021-0.248-0.054-0.314-0.094
			c-0.066-0.039-0.111-0.084-0.129-0.129c-0.019-0.045-0.033-0.096-0.033-0.147c0-0.054-0.007-0.11-0.016-0.169
			c0-0.155,0.009-0.347,0.032-0.583c0.02-0.237,0.048-0.485,0.075-0.748c0.034-0.262,0.066-0.516,0.103-0.761
			c0.034-0.245,0.07-0.462,0.1-0.648c0.029-0.175,0.069-0.409,0.123-0.713c0.052-0.303,0.109-0.618,0.175-0.939
			c0.067-0.322,0.132-0.63,0.194-0.916c0.06-0.289,0.115-0.508,0.169-0.663c0.031-0.071,0.082-0.121,0.147-0.153
			c0.067-0.029,0.141-0.045,0.224-0.045c0.183,0,0.349,0.07,0.5,0.214c0.146,0.145,0.222,0.269,0.222,0.373v0.057
			C174.965,86.381,174.85,86.674,174.74,87.043z"/>
		<path fill="#FFFFFF" d="M190.311,87.351c-0.073,0.131-0.175,0.352-0.302,0.654c-0.127,0.304-0.256,0.645-0.387,1.032
			c-0.127,0.383-0.242,0.788-0.338,1.215c-0.099,0.426-0.146,0.826-0.146,1.206c0,0.195,0.022,0.338,0.065,0.432
			c0.038,0.09,0.126,0.138,0.259,0.138c0.124,0,0.229-0.034,0.315-0.101c0.085-0.064,0.164-0.099,0.223-0.099
			c0.115,0,0.198,0.045,0.254,0.138c0.057,0.09,0.084,0.194,0.084,0.308c0,0.062-0.016,0.142-0.053,0.239
			c-0.034,0.099-0.096,0.189-0.186,0.279c-0.085,0.084-0.204,0.159-0.351,0.22c-0.152,0.063-0.339,0.093-0.563,0.093
			c-0.195,0-0.36-0.045-0.493-0.141c-0.133-0.091-0.24-0.208-0.316-0.35c-0.075-0.146-0.129-0.311-0.16-0.502
			s-0.046-0.378-0.046-0.561c0-0.308,0.032-0.617,0.091-0.931c0.062-0.313,0.124-0.64,0.187-0.979
			c-0.245,0.36-0.53,0.719-0.848,1.076c-0.317,0.359-0.655,0.689-1.017,0.987c-0.203,0.161-0.414,0.316-0.637,0.46
			c-0.221,0.145-0.495,0.217-0.825,0.217c-0.284,0-0.518-0.072-0.698-0.217c-0.18-0.144-0.318-0.316-0.424-0.513
			c-0.103-0.2-0.172-0.414-0.208-0.641c-0.033-0.226-0.054-0.423-0.054-0.583c0-0.403,0.069-0.823,0.2-1.264
			c0.133-0.439,0.314-0.88,0.539-1.309c0.226-0.431,0.491-0.84,0.792-1.232c0.305-0.386,0.624-0.732,0.965-1.028
			c0.336-0.3,0.682-0.536,1.037-0.711c0.354-0.172,0.7-0.26,1.039-0.26c0.286,0,0.516,0.054,0.689,0.163
			c0.175,0.107,0.311,0.231,0.409,0.366c0.099,0.14,0.163,0.277,0.192,0.418c0.032,0.14,0.048,0.239,0.048,0.3
			c0,0.268-0.065,0.432-0.193,0.492c-0.129,0.063-0.268,0.091-0.407,0.091c-0.113,0-0.207-0.03-0.28-0.099
			c-0.07-0.064-0.136-0.138-0.19-0.215c-0.058-0.078-0.116-0.149-0.178-0.214c-0.063-0.071-0.128-0.101-0.197-0.101
			c-0.083,0.008-0.164,0.02-0.24,0.028c-0.077,0.013-0.167,0.042-0.269,0.092c-0.226,0.104-0.507,0.302-0.841,0.595
			c-0.335,0.294-0.653,0.641-0.96,1.046c-0.309,0.407-0.57,0.853-0.784,1.337c-0.214,0.488-0.325,0.984-0.325,1.486
			c0,0.319,0.045,0.56,0.133,0.716c0.085,0.158,0.167,0.237,0.237,0.237c0.265,0,0.538-0.09,0.814-0.273
			c0.278-0.187,0.548-0.421,0.81-0.702c0.262-0.284,0.514-0.595,0.753-0.931c0.243-0.341,0.46-0.662,0.648-0.97
			c0.188-0.307,0.35-0.583,0.491-0.823c0.139-0.242,0.239-0.4,0.302-0.484c0.081-0.113,0.157-0.223,0.237-0.338
			c0.075-0.114,0.192-0.17,0.346-0.17c0.184,0,0.358,0.059,0.521,0.178c0.167,0.118,0.249,0.247,0.249,0.393
			C190.325,87.294,190.318,87.33,190.311,87.351z"/>
		<path fill="#FFFFFF" d="M196.339,87.533c-0.186,0-0.331-0.036-0.438-0.106c-0.109-0.071-0.163-0.181-0.163-0.321
			c0-0.082,0.015-0.172,0.047-0.269c0.03-0.099,0.047-0.192,0.047-0.27c0-0.229-0.088-0.404-0.257-0.525
			c-0.167-0.124-0.344-0.186-0.527-0.186c-0.517,0-0.966,0.16-1.357,0.479c-0.388,0.317-0.713,0.704-0.977,1.158
			c-0.261,0.459-0.461,0.944-0.603,1.455c-0.135,0.516-0.205,0.964-0.205,1.356c0,0.151,0.011,0.315,0.04,0.484
			c0.025,0.166,0.073,0.325,0.146,0.468c0.07,0.144,0.163,0.263,0.275,0.353c0.11,0.096,0.264,0.138,0.445,0.138
			c0.371,0,0.694-0.062,0.979-0.191c0.281-0.126,0.527-0.292,0.735-0.49c0.212-0.2,0.397-0.414,0.557-0.637
			c0.156-0.226,0.304-0.443,0.438-0.641c0.133-0.2,0.262-0.364,0.385-0.493c0.124-0.126,0.256-0.192,0.397-0.192
			c0.115,0,0.21,0.04,0.287,0.116c0.076,0.076,0.116,0.191,0.116,0.344c0,0.075-0.045,0.204-0.131,0.386
			c-0.09,0.187-0.214,0.396-0.368,0.632c-0.161,0.237-0.355,0.482-0.587,0.739s-0.493,0.488-0.787,0.698
			c-0.287,0.21-0.612,0.384-0.961,0.523c-0.347,0.141-0.716,0.211-1.106,0.211c-0.431,0-0.777-0.103-1.04-0.302
			c-0.26-0.201-0.459-0.434-0.601-0.708c-0.139-0.271-0.231-0.556-0.273-0.847c-0.048-0.289-0.07-0.529-0.07-0.713
			c0-0.384,0.05-0.775,0.16-1.187c0.107-0.412,0.263-0.814,0.463-1.215c0.2-0.403,0.435-0.782,0.704-1.14
			c0.274-0.36,0.578-0.674,0.909-0.945c0.335-0.272,0.691-0.487,1.062-0.649c0.376-0.156,0.763-0.237,1.163-0.237
			c0.218,0,0.432,0.039,0.647,0.108c0.215,0.071,0.413,0.178,0.591,0.313c0.181,0.139,0.326,0.31,0.441,0.51
			c0.114,0.202,0.167,0.429,0.167,0.686c0,0.296-0.034,0.522-0.106,0.678c-0.074,0.151-0.152,0.259-0.238,0.321
			c-0.09,0.062-0.171,0.095-0.252,0.1C196.409,87.533,196.359,87.533,196.339,87.533z"/>
		<path fill="#FFFFFF" d="M200.989,81.35c-0.085,0.227-0.215,0.558-0.396,1.006c-0.181,0.445-0.357,0.937-0.533,1.47
			c-0.357,1.12-0.637,2.209-0.846,3.271c-0.203,1.06-0.327,2.137-0.369,3.223c0.071-0.133,0.161-0.284,0.265-0.454
			c0.099-0.166,0.203-0.338,0.309-0.507c0.098-0.17,0.199-0.328,0.298-0.478c0.096-0.146,0.178-0.273,0.24-0.377
			c0.124-0.204,0.284-0.469,0.49-0.793c0.205-0.321,0.44-0.637,0.699-0.937c0.265-0.301,0.545-0.566,0.847-0.785
			c0.305-0.222,0.617-0.331,0.946-0.331c0.249,0,0.44,0.039,0.578,0.121c0.136,0.085,0.24,0.189,0.308,0.327
			c0.064,0.133,0.109,0.285,0.131,0.461c0.021,0.174,0.029,0.352,0.029,0.538c0,0.193-0.014,0.415-0.045,0.661
			c-0.03,0.247-0.063,0.461-0.09,0.644c-0.034,0.166-0.063,0.406-0.097,0.726c-0.027,0.317-0.05,0.65-0.061,1
			c-0.009,0.35,0.003,0.68,0.04,0.992c0.036,0.311,0.111,0.542,0.223,0.683c0.029,0.043,0.075,0.071,0.132,0.079
			c0.054,0.012,0.109,0.035,0.166,0.076c0.058,0.043,0.111,0.104,0.156,0.187c0.047,0.079,0.07,0.212,0.07,0.383
			c0,0.156-0.083,0.285-0.246,0.392c-0.167,0.11-0.348,0.161-0.541,0.161c-0.08,0-0.191-0.045-0.336-0.144
			c-0.147-0.099-0.289-0.287-0.434-0.562c-0.11-0.217-0.187-0.437-0.221-0.662c-0.037-0.227-0.054-0.44-0.054-0.648
			c0-0.581,0.027-1.168,0.09-1.754c0.062-0.584,0.079-1.179,0.045-1.785c-0.02-0.234-0.045-0.383-0.076-0.443
			c-0.031-0.063-0.093-0.084-0.183-0.063c-0.146,0.041-0.315,0.168-0.517,0.385c-0.2,0.217-0.399,0.451-0.598,0.717
			c-0.202,0.259-0.386,0.513-0.547,0.758c-0.167,0.249-0.278,0.418-0.341,0.511c-0.254,0.419-0.524,0.865-0.807,1.339
			c-0.281,0.469-0.508,0.903-0.668,1.291c-0.042,0.105-0.107,0.17-0.194,0.201c-0.088,0.03-0.184,0.045-0.282,0.045
			c-0.124,0-0.233,0-0.332,0c-0.097,0-0.184-0.015-0.255-0.045c-0.07-0.031-0.129-0.085-0.178-0.161
			c-0.048-0.079-0.073-0.2-0.084-0.361c0.039-0.874,0.116-1.778,0.226-2.718c0.104-0.937,0.237-1.875,0.397-2.806
			c0.161-0.936,0.353-1.855,0.578-2.758c0.227-0.899,0.479-1.751,0.767-2.555c0.053-0.141,0.137-0.248,0.248-0.313
			c0.113-0.067,0.231-0.099,0.353-0.099c0.209,0,0.378,0.063,0.52,0.191c0.139,0.126,0.205,0.287,0.205,0.484
			c0,0.029,0,0.06,0,0.091S201.008,81.296,200.989,81.35z"/>
	</g>
</g>
</svg>
