<?xml version="1.0" encoding="utf-8"?>
<!-- Generator: Adobe Illustrator 13.0.0, SVG Export Plug-In . SVG Version: 6.00 Build 14948)  -->
<!DOCTYPE svg PUBLIC "-//W3C//DTD SVG 1.0//EN" "http://www.w3.org/TR/2001/REC-SVG-20010904/DTD/svg10.dtd">
<svg version="1.0" id="Layer_1" xmlns="http://www.w3.org/2000/svg" xmlns:xlink="http://www.w3.org/1999/xlink" x="0px" y="0px"
	 width="478px" height="170px" viewBox="0 0 478 170" enable-background="new 0 0 478 170" xml:space="preserve">
<text transform="matrix(1 0 0 1 145.8896 52.5786)"><tspan x="0" y="0" fill="#FFFFFF" font-family="'HelveticaNeueLT-Bold'" font-size="43.6682">Pamplona</tspan><tspan x="0" y="54.585" fill="#FFFFFF" font-family="'HelveticaNeueLT-Bold'" font-size="43.6682">English Teacher</tspan></text>
<g>
	<g>
		<path fill="#FFFFFF" d="M4.874,81.928c0-35.712,28.958-64.671,64.684-64.671l0,0c35.709,0,64.668,28.958,64.668,64.671l0,0
			c0,35.729-28.958,64.668-64.668,64.684l0,0C33.832,146.596,4.874,117.656,4.874,81.928L4.874,81.928z M12.331,81.928
			c0.048,31.603,25.603,57.168,57.227,57.222l0,0c31.594-0.054,57.165-25.619,57.21-57.222l0,0
			c-0.045-31.61-25.616-57.168-57.21-57.213l0,0C37.934,24.76,12.379,50.317,12.331,81.928L12.331,81.928z"/>
	</g>
	<g>
		<polygon fill="#FFFFFF" points="116.176,73.942 71.191,95.827 26.207,73.942 71.191,52.052 		"/>
		<path fill="#FFFFFF" d="M71.191,98.236L47.995,86.957v10.49c0,0,8.009,11.595,22.714,11.595c14.702,0,23.679-11.595,23.679-11.595
			v-10.49L71.191,98.236z"/>
		<g>
			<polygon fill="#FFFFFF" points="37.313,95.939 37.313,77.81 40.197,77.81 40.197,95.939 37.313,95.939 			"/>
		</g>
		<path fill="#FFFFFF" d="M41.266,97.085c0,1.402-1.138,2.532-2.538,2.532s-2.537-1.13-2.537-2.532c0-1.407,1.138-2.537,2.537-2.537
			S41.266,95.678,41.266,97.085z"/>
		<polygon fill="#FFFFFF" points="38.848,95.998 34.741,105.422 42.96,105.422 		"/>
	</g>
</g>
<text transform="matrix(1 0 0 1 148.5259 145.9756)" fill="#FFFFFF" font-family="'PonyTale'" font-size="21.8341">Andrew Stelmach</text>
</svg>
