<svg version="1" xmlns="http://www.w3.org/2000/svg" width="340" height="95" viewBox="0 0 340 95"><g fill="#fff"><path d="M104.248 4.227h9.91c1.375 0 2.543.2 3.51.6.964.4 1.748.93 2.353 1.585.606.656 1.048 1.41 1.325 2.263.278.852.416 1.717.416 2.598 0 .904-.137 1.777-.415 2.618-.276.842-.72 1.59-1.324 2.246-.604.66-1.388 1.186-2.353 1.586-.966.4-2.134.6-3.51.6h-5.077v7.88h-4.832V4.226zm4.83 10.34h3.756c.553 0 1.087-.04 1.6-.123.512-.082.963-.24 1.354-.477.39-.237.702-.57.938-1 .236-.43.354-.996.354-1.694 0-.696-.118-1.26-.354-1.69-.236-.433-.548-.765-.938-1-.39-.236-.842-.396-1.355-.48-.512-.08-1.046-.122-1.6-.122h-3.754v6.588zM124.13 15.183c.06-1.027.316-1.88.77-2.556.45-.676 1.023-1.22 1.72-1.63.7-.41 1.478-.703 2.34-.877.86-.174 1.744-.262 2.646-.262.8 0 1.612.057 2.432.168.82.114 1.57.334 2.246.663.676.327 1.23.79 1.662 1.385.43.594.646 1.365.646 2.308v8.277c0 .72.04 1.406.124 2.063.083.657.225 1.15.43 1.478h-4.43c-.083-.246-.15-.497-.2-.753-.05-.257-.088-.518-.107-.785-.7.72-1.52 1.227-2.464 1.524-.943.297-1.908.446-2.892.446-.76 0-1.47-.098-2.125-.292-.658-.194-1.232-.488-1.724-.878-.492-.388-.878-.88-1.154-1.477-.277-.594-.416-1.302-.416-2.123 0-.903.154-1.647.462-2.232.308-.585.718-1.05 1.23-1.4.514-.348 1.093-.61 1.74-.785.646-.173 1.307-.312 1.986-.415.677-.103 1.322-.185 1.938-.247.615-.06 1.163-.153 1.647-.275.48-.123.864-.302 1.152-.54.286-.236.43-.58.43-1.03 0-.474-.076-.848-.23-1.124-.155-.277-.358-.492-.616-.645-.255-.155-.553-.26-.89-.31-.34-.05-.704-.078-1.094-.078-.843 0-1.514.185-2.017.554-.502.37-.796.985-.877 1.848h-4.37zm10.093 3.23c-.184.166-.415.293-.693.386-.277.09-.574.168-.89.23-.32.062-.66.11-1.018.153-.358.04-.704.093-1.032.154-.348.062-.676.143-.983.246-.308.102-.58.24-.815.416-.237.173-.426.4-.57.676-.144.276-.215.61-.215 1 0 .41.07.743.215 1 .144.256.34.462.585.616.247.153.533.262.862.323.327.062.666.093 1.014.093.863 0 1.528-.144 2-.432.473-.288.82-.63 1.047-1.03.225-.4.365-.806.416-1.217.05-.41.077-.74.077-.986v-1.63zM142.1 10.29h4.126v2.153h.06c.575-.82 1.268-1.457 2.08-1.907.808-.45 1.737-.677 2.783-.677 1.004 0 1.923.198 2.754.6.83.4 1.462 1.082 1.892 2.046.473-.698 1.114-1.313 1.924-1.847.81-.535 1.77-.8 2.877-.8.84 0 1.623.103 2.34.307.718.206 1.332.533 1.846.984.514.453.915 1.044 1.203 1.772.285.728.43 1.604.43 2.63v10.65h-4.37v-9.018c0-.535-.022-1.036-.063-1.508-.04-.47-.154-.88-.338-1.23-.185-.35-.457-.627-.815-.833-.36-.203-.847-.308-1.462-.308s-1.114.12-1.493.355c-.38.236-.678.544-.893.922-.216.38-.36.81-.432 1.293-.07.483-.108.97-.108 1.462V26.2h-4.368v-8.925c0-.45-.013-.913-.03-1.385-.022-.47-.11-.902-.263-1.29-.153-.392-.41-.705-.77-.94-.358-.236-.887-.355-1.585-.355-.224 0-.5.048-.83.14-.33.09-.65.265-.97.523-.318.256-.588.626-.815 1.106-.226.482-.338 1.114-.338 1.894V26.2H142.1V10.29zM169.86 10.29h4.154v2.03h.063c.53-.863 1.207-1.487 2.03-1.878.818-.39 1.723-.584 2.71-.584 1.25 0 2.326.236 3.23.708.904.472 1.65 1.097 2.246 1.876.593.78 1.038 1.688 1.325 2.724.285 1.038.432 2.12.432 3.247 0 1.067-.146 2.093-.432 3.078-.287.985-.724 1.857-1.31 2.618-.585.758-1.314 1.37-2.184 1.83-.872.46-1.895.693-3.063.693-.964 0-1.868-.204-2.71-.614-.842-.41-1.527-1.005-2.06-1.786h-.062v7.57h-4.37V10.29zm8.03 13.047c.72 0 1.32-.143 1.802-.43.482-.287.872-.662 1.17-1.125.297-.46.512-.994.632-1.6.124-.605.187-1.236.187-1.894 0-.636-.066-1.26-.202-1.875-.133-.618-.353-1.167-.663-1.648-.307-.482-.702-.87-1.184-1.17-.482-.297-1.07-.446-1.768-.446-.72 0-1.32.148-1.802.446-.48.298-.87.683-1.167 1.155-.3.472-.508 1.02-.632 1.647-.12.627-.183 1.256-.183 1.892 0 .657.065 1.288.2 1.894.134.604.348 1.138.643 1.6.3.462.688.836 1.174 1.123.482.288 1.076.43 1.796.43zM188.787 4.227h4.372V26.2h-4.373V4.228zM196.107 18.26c0-1.273.194-2.426.586-3.462.39-1.036.942-1.92 1.662-2.646.718-.73 1.58-1.292 2.59-1.693 1-.402 2.13-.6 3.38-.6 1.255 0 2.387.198 3.4.6 1.018.4 1.883.963 2.602 1.692.72.728 1.272 1.61 1.664 2.646.39 1.037.585 2.19.585 3.462 0 1.27-.195 2.42-.584 3.447-.39 1.027-.944 1.902-1.663 2.63-.72.73-1.584 1.294-2.602 1.694-1.014.4-2.146.6-3.4.6-1.25 0-2.38-.2-3.38-.6-1.01-.4-1.872-.964-2.59-1.692-.72-.73-1.27-1.604-1.662-2.63-.39-1.027-.586-2.176-.586-3.448zm4.372 0c0 .636.062 1.258.186 1.863.12.604.334 1.147.63 1.63.3.482.692.868 1.186 1.154.49.288 1.108.43 1.846.43.74 0 1.36-.142 1.86-.43.503-.286.903-.672 1.203-1.155.297-.482.51-1.025.63-1.63.124-.604.186-1.226.186-1.862 0-.636-.062-1.262-.187-1.876-.12-.616-.333-1.16-.63-1.63-.3-.473-.7-.858-1.2-1.156-.502-.298-1.123-.447-1.862-.447-.737 0-1.355.15-1.846.448-.493.298-.886.683-1.185 1.155-.297.47-.51 1.016-.63 1.63-.126.616-.188 1.24-.188 1.877zM215.405 10.29h4.154v2.215h.092c.556-.903 1.27-1.57 2.154-2 .882-.43 1.784-.646 2.71-.646 1.168 0 2.125.16 2.877.476.75.32 1.34.758 1.767 1.324.432.564.733 1.25.908 2.062.174.812.265 1.708.265 2.694v9.786h-4.37v-8.987c0-1.312-.21-2.293-.632-2.94-.422-.645-1.144-.97-2.167-.97-1.193 0-2.053.355-2.586 1.062-.536.708-.8 1.874-.8 3.494v8.342h-4.372V10.29zM233.472 15.183c.06-1.027.318-1.88.77-2.556.448-.676 1.027-1.22 1.723-1.63.697-.41 1.48-.703 2.342-.877.86-.174 1.74-.262 2.644-.262.802 0 1.61.057 2.432.168.82.114 1.57.334 2.247.663.68.327 1.23.79 1.663 1.385.43.594.644 1.365.644 2.308v8.277c0 .72.04 1.406.124 2.063.085.657.226 1.15.435 1.478h-4.433c-.084-.246-.152-.497-.203-.753-.05-.257-.086-.518-.105-.785-.7.72-1.522 1.227-2.465 1.524-.944.297-1.907.446-2.893.446-.76 0-1.467-.098-2.123-.292-.655-.194-1.233-.488-1.724-.878-.493-.388-.877-.88-1.153-1.477-.28-.594-.418-1.302-.418-2.123 0-.903.155-1.647.462-2.232s.72-1.05 1.23-1.4c.512-.348 1.094-.61 1.74-.785.645-.173 1.308-.312 1.984-.415.677-.103 1.322-.185 1.94-.247.613-.06 1.16-.153 1.643-.275.482-.123.867-.302 1.155-.54.288-.236.428-.58.428-1.03 0-.474-.075-.848-.228-1.124-.155-.277-.357-.492-.614-.645-.258-.155-.555-.26-.893-.31-.34-.05-.703-.078-1.092-.078-.843 0-1.515.185-2.016.554-.507.37-.796.985-.882 1.848h-4.366zm10.09 3.23c-.182.166-.41.293-.688.386-.278.09-.572.168-.895.23-.317.062-.655.11-1.013.153-.36.04-.705.093-1.032.154-.35.062-.677.143-.986.246-.31.102-.58.24-.816.416-.234.173-.426.4-.567.676-.146.276-.218.61-.218 1 0 .41.07.743.217 1 .142.256.336.462.585.616.245.153.532.262.86.323.33.062.664.093 1.014.093.863 0 1.53-.144 2.002-.432.472-.288.82-.63 1.046-1.03.227-.4.364-.806.415-1.217.053-.41.074-.74.074-.986v-1.63zM104.248 42.697h16.435v4.063H109.08v4.71h10.648v3.753H109.08v5.386h11.848v4.062h-16.68V42.697zM123.728 48.757h4.155v2.216h.093c.553-.9 1.27-1.567 2.154-1.997.88-.433 1.785-.646 2.707-.646 1.17 0 2.13.16 2.88.478.748.316 1.336.756 1.77 1.324.43.56.732 1.248.907 2.06.172.813.26 1.71.26 2.693v9.788h-4.37v-8.99c0-1.31-.21-2.29-.63-2.938-.423-.646-1.145-.97-2.17-.97-1.19 0-2.052.354-2.584 1.062-.535.708-.8 1.872-.8 3.493v8.342h-4.372V48.757zM157.273 63.656c0 .43-.035.908-.107 1.433-.072.52-.21 1.042-.414 1.563-.206.525-.495 1.026-.863 1.51-.37.48-.863.913-1.478 1.29-.617.384-1.366.686-2.247.908-.882.23-1.93.342-3.14.342-.78 0-1.574-.098-2.383-.293-.812-.195-1.55-.497-2.216-.908-.667-.413-1.22-.937-1.663-1.585s-.694-1.422-.754-2.324h4.338c.205.82.605 1.39 1.202 1.71.593.314 1.28.475 2.06.475 1.21 0 2.104-.367 2.678-1.104.575-.742.852-1.687.83-2.834v-2.09h-.06c-.474.84-1.144 1.462-2.016 1.858-.873.4-1.79.602-2.754.602-1.19 0-2.215-.21-3.076-.63-.863-.422-1.57-.998-2.125-1.725-.552-.73-.958-1.583-1.215-2.555-.256-.976-.385-2.005-.385-3.094 0-1.025.148-2.016.447-2.97.297-.955.733-1.795 1.307-2.522.576-.728 1.288-1.31 2.14-1.738.852-.433 1.833-.646 2.94-.646 1.046 0 1.965.196 2.754.583.79.392 1.45 1.046 1.986 1.97h.06V48.76h4.154v14.898zm-7.877-2.74c.616 0 1.16-.12 1.63-.37.474-.245.864-.576 1.17-.983.308-.41.54-.878.692-1.4.155-.523.23-1.073.23-1.647 0-.635-.06-1.25-.184-1.848-.123-.593-.33-1.117-.615-1.567-.29-.45-.674-.81-1.156-1.076s-1.073-.4-1.77-.4c-.615 0-1.143.124-1.584.368-.44.246-.81.58-1.108 1.002-.297.42-.513.902-.646 1.443-.134.547-.2 1.116-.2 1.708 0 .576.056 1.146.17 1.71.11.566.307 1.07.584 1.524.276.45.64.817 1.093 1.107.452.284 1.016.428 1.693.428zM160.904 42.697h4.37v21.975h-4.37V42.697zM173.215 46.298h-4.37v-3.6h4.37v3.6zm-4.37 2.46h4.37V64.67h-4.37V48.757zM180.047 59.5c0 .47.096.877.294 1.217.194.337.446.616.753.83.308.214.663.372 1.063.477.397.104.814.155 1.243.155.307 0 .63-.037.97-.108.34-.073.648-.187.92-.34.28-.153.51-.358.697-.615.184-.258.273-.58.273-.97 0-.33-.112-.61-.335-.847-.228-.236-.55-.446-.97-.632-.42-.183-.942-.352-1.557-.505-.615-.155-1.313-.316-2.09-.48-.64-.144-1.257-.31-1.862-.508-.607-.194-1.146-.45-1.617-.77-.47-.318-.852-.72-1.14-1.198-.288-.484-.432-1.073-.432-1.77 0-1.005.2-1.843.6-2.51.4-.666.932-1.19 1.585-1.57.657-.376 1.395-.646 2.218-.798.818-.155 1.66-.232 2.522-.232.865 0 1.7.084 2.512.244.81.167 1.53.443 2.166.832.637.39 1.167.908 1.587 1.557.424.644.674 1.462.754 2.445h-4.153c-.06-.84-.38-1.41-.953-1.708-.578-.297-1.255-.445-2.033-.445-.243 0-.51.014-.8.048-.285.027-.547.096-.783.196-.236.104-.438.255-.6.446-.164.196-.247.456-.247.786 0 .39.145.708.433.957.284.24.66.444 1.122.597s.99.293 1.584.417c.594.12 1.2.254 1.814.396.635.145 1.258.32 1.864.52.606.21 1.142.48 1.613.82.474.337.853.762 1.14 1.262.29.502.432 1.124.432 1.862 0 1.046-.208 1.922-.628 2.63-.425.71-.97 1.277-1.647 1.71-.68.43-1.452.737-2.327.92-.87.184-1.76.28-2.658.28-.925 0-1.83-.097-2.71-.28-.883-.183-1.668-.495-2.353-.935-.69-.445-1.25-1.02-1.695-1.74-.44-.72-.68-1.602-.723-2.647h4.155zM193.187 42.697h4.37v8.275h.095c.55-.9 1.26-1.567 2.123-1.997.86-.433 1.702-.646 2.523-.646 1.167 0 2.125.16 2.875.477.75.316 1.343.756 1.77 1.324.433.562.734 1.25.91 2.062.17.812.26 1.71.26 2.692v9.788h-4.37v-8.99c0-1.31-.21-2.29-.628-2.938-.422-.646-1.145-.97-2.17-.97-1.194 0-2.054.354-2.587 1.062-.535.708-.8 1.872-.8 3.493v8.34h-4.37V42.698zM225.317 46.76h-6.587v-4.063h18.003v4.063h-6.583v17.912h-4.833V46.76zM238.98 57.776c.063 1.396.422 2.416 1.078 3.063.656.644 1.6.97 2.83.97.883 0 1.643-.222 2.278-.664s1.027-.907 1.168-1.397h3.847c-.613 1.884-1.556 3.25-2.828 4.09-1.273.84-2.812 1.263-4.618 1.263-1.252 0-2.377-.208-3.383-.614-1.004-.413-1.854-.988-2.555-1.727-.696-.74-1.234-1.62-1.617-2.645-.38-1.026-.568-2.157-.568-3.388 0-1.19.195-2.298.587-3.324.387-1.023.942-1.914 1.66-2.66.717-.748 1.574-1.34 2.57-1.77.994-.434 2.097-.647 3.307-.647 1.353 0 2.53.26 3.538.782 1.008.524 1.834 1.226 2.48 2.11.645.88 1.112 1.89 1.4 3.016.287 1.128.387 2.306.308 3.538h-11.48zm7.11-2.77c-.205-1.105-.57-1.946-1.095-2.52-.52-.577-1.316-.863-2.382-.863-.7 0-1.276.117-1.74.355-.46.233-.832.526-1.107.873-.28.352-.475.723-.586 1.113-.113.388-.178.737-.2 1.043h7.11zM252.86 53.652c.06-1.026.318-1.88.77-2.556.45-.677 1.026-1.218 1.726-1.63.694-.41 1.476-.7 2.337-.876.86-.176 1.743-.262 2.647-.262.8 0 1.608.056 2.432.17.818.11 1.567.33 2.247.66.676.328 1.228.79 1.66 1.386.43.595.646 1.363.646 2.306v8.278c0 .72.038 1.407.123 2.062.08.66.223 1.15.43 1.48h-4.432c-.085-.245-.152-.498-.203-.756-.047-.257-.085-.516-.104-.783-.698.72-1.52 1.225-2.463 1.523-.942.296-1.907.448-2.89.448-.763 0-1.47-.098-2.124-.293-.657-.194-1.235-.486-1.726-.878-.494-.39-.877-.88-1.153-1.477-.276-.598-.418-1.303-.418-2.123 0-.906.155-1.647.463-2.233.306-.584.718-1.052 1.23-1.398.513-.35 1.092-.613 1.74-.79.644-.173 1.305-.308 1.985-.413.678-.102 1.32-.183 1.938-.245.616-.063 1.165-.155 1.646-.276.478-.124.864-.304 1.155-.54.284-.235.428-.578.428-1.03 0-.472-.078-.846-.23-1.125-.155-.275-.358-.49-.614-.642-.26-.154-.554-.26-.896-.31-.34-.053-.702-.076-1.09-.076-.845 0-1.516.183-2.017.555-.503.366-.796.98-.88 1.845h-4.368zm10.094 3.23c-.183.165-.414.294-.693.387-.274.09-.572.168-.89.23-.32.063-.657.11-1.015.154-.362.04-.705.09-1.032.153-.35.063-.677.145-.983.245-.31.102-.58.243-.818.417-.234.173-.427.398-.568.676-.146.274-.216.61-.216 1 0 .41.07.744.216 1 .142.256.337.46.585.614.247.156.532.263.862.325.326.063.664.093 1.012.093.866 0 1.53-.145 2.002-.43.472-.29.82-.633 1.05-1.032.222-.402.363-.808.41-1.217.055-.41.08-.74.08-.988v-1.63zM281.546 54.362c-.292-1.828-1.37-2.74-3.234-2.74-.697 0-1.284.157-1.755.476-.47.32-.856.73-1.153 1.233-.295.502-.51 1.06-.632 1.676-.124.613-.187 1.212-.187 1.785 0 .575.063 1.162.187 1.758.123.594.322 1.13.6 1.612.277.48.652.88 1.127 1.187.466.308 1.045.463 1.722.463 1.024 0 1.823-.293 2.396-.88.575-.583.937-1.367 1.08-2.354h4.217c-.29 2.114-1.11 3.73-2.464 4.847-1.352 1.12-3.088 1.68-5.2 1.68-1.213 0-2.31-.203-3.293-.6-.985-.402-1.825-.964-2.52-1.694-.7-.73-1.245-1.59-1.633-2.587-.393-.992-.587-2.086-.587-3.274 0-1.232.18-2.377.542-3.435.356-1.057.886-1.972 1.582-2.738.696-.772 1.55-1.37 2.554-1.8 1.005-.433 2.157-.646 3.447-.646.94 0 1.85.125 2.724.37.872.245 1.647.623 2.323 1.122.677.504 1.235 1.135 1.678 1.895.44.76.69 1.642.753 2.647h-4.274zM288.375 42.697h4.37v8.275h.093c.552-.9 1.26-1.567 2.12-1.997.865-.433 1.707-.646 2.527-.646 1.166 0 2.125.16 2.875.477.75.316 1.34.756 1.77 1.324.432.562.734 1.25.905 2.062.176.812.266 1.71.266 2.692v9.788h-4.37v-8.99c0-1.31-.21-2.29-.63-2.938-.42-.646-1.143-.97-2.17-.97-1.192 0-2.052.354-2.585 1.062-.535.708-.8 1.872-.8 3.493v8.34h-4.37V42.698zM310.228 57.776c.063 1.396.42 2.416 1.077 3.063.654.644 1.598.97 2.83.97.883 0 1.642-.222 2.278-.664.635-.442 1.027-.907 1.168-1.397h3.847c-.614 1.884-1.557 3.25-2.828 4.09-1.275.84-2.815 1.263-4.62 1.263-1.252 0-2.38-.208-3.383-.614-1.008-.413-1.858-.988-2.554-1.727-.7-.74-1.236-1.62-1.62-2.645-.377-1.026-.566-2.157-.566-3.388 0-1.19.194-2.298.586-3.324.388-1.023.942-1.914 1.662-2.66.715-.748 1.572-1.34 2.568-1.77.994-.434 2.097-.647 3.308-.647 1.355 0 2.532.26 3.54.782 1.003.524 1.832 1.226 2.48 2.11.644.88 1.112 1.89 1.4 3.016.284 1.128.386 2.306.307 3.538h-11.48zm7.107-2.77c-.207-1.105-.57-1.946-1.095-2.52-.52-.577-1.314-.863-2.382-.863-.698 0-1.276.117-1.74.355-.462.233-.83.526-1.106.873-.28.352-.474.723-.587 1.113-.113.388-.178.737-.197 1.043h7.107zM324.286 48.757h4.156v2.958h.063c.203-.493.48-.95.828-1.37.35-.42.75-.782 1.202-1.077.45-.296.938-.527 1.46-.694.523-.16 1.056-.244 1.585-.244.33 0 .648.05.955.15v4.067c-.206-.043-.45-.08-.737-.107-.29-.034-.565-.048-.833-.048-.802 0-1.477.133-2.03.397-.552.27-1 .63-1.34 1.093-.338.463-.58 1.004-.722 1.63-.146.626-.217 1.288-.217 1.987v7.172h-4.37V48.757z"/></g><path fill="#fff" d="M2.74 46.89c0-25.168 20.408-45.578 45.585-45.578 25.167 0 45.575 20.41 45.575 45.58 0 25.175-20.408 45.57-45.575 45.585C23.148 92.463 2.74 72.067 2.74 46.89zm5.255 0c.034 22.276 18.043 40.292 40.33 40.328 22.267-.036 40.287-18.052 40.32-40.327C88.612 24.613 70.592 6.6 48.325 6.57 26.04 6.598 8.03 24.612 7.996 46.89zM81.182 41.263L49.478 56.686 17.774 41.263l31.704-15.428zM49.478 58.383L33.13 50.435v7.394s5.644 8.173 16.008 8.173c10.36 0 16.687-8.174 16.687-8.174v-7.395l-16.347 7.948zM25.602 56.765v-12.78h2.03v12.78h-2.03zM28.386 57.57c0 .99-.8 1.79-1.788 1.79-.986 0-1.79-.8-1.79-1.79 0-.992.804-1.787 1.79-1.787.987 0 1.788.795 1.788 1.787zM26.683 56.804L23.79 63.45h5.792z"/><g fill="#fff"><path d="M105.692 89.09c-.257-.05-.438-.124-.545-.222-.11-.1-.152-.27-.132-.52.01-.16.066-.288.17-.376.102-.087.227-.152.376-.2.15-.044.308-.078.478-.1.17-.022.327-.04.47-.063.39-.706.786-1.408 1.192-2.1.405-.692.812-1.346 1.224-1.963.175-.257.35-.513.523-.77.175-.254.34-.494.5-.716l.43-.592c.13-.175.234-.315.317-.43.196-.166.38-.247.552-.247.104 0 .224.02.362.064.14.043.267.098.385.17.118.07.216.16.293.262.076.102.108.22.1.352-.02.238-.06.592-.116 1.062-.058.473-.115.983-.178 1.527-.062.544-.115 1.08-.16 1.613-.048.532-.07.976-.07 1.325.203.008.388.015.546.015.16 0 .292.01.4.03.107.02.19.064.246.13.056.067.086.17.086.3 0 .177-.074.312-.216.41-.144.097-.272.144-.385.144-.094-.02-.184-.033-.27-.04-.088-.002-.218-.01-.394-.02.042.696.132 1.265.27 1.7.14.436.282.786.432 1.046.147.262.28.462.392.6.113.138.17.267.17.378 0 .164-.067.334-.2.508-.133.172-.303.263-.507.263-.073 0-.146-.016-.224-.05-.077-.027-.157-.084-.24-.17-.204-.244-.378-.537-.522-.876-.144-.338-.262-.695-.355-1.068-.09-.375-.164-.758-.215-1.152-.05-.396-.08-.767-.093-1.118-.615.054-1.232.12-1.854.2-.62.085-1.238.224-1.853.415-.42 1.048-.754 1.864-1 2.448-.245.587-.405 1-.476 1.247-.082.166-.18.278-.3.347-.117.066-.243.1-.377.1-.205 0-.363-.063-.477-.185-.113-.124-.17-.282-.17-.48 0-.078.016-.19.048-.334.09-.195.194-.415.307-.654.112-.244.228-.49.346-.74.12-.25.24-.507.363-.764.12-.255.24-.49.352-.705zm5.093-2.063c0-.286.014-.633.04-1.03.024-.4.053-.817.083-1.247.03-.43.062-.856.093-1.277.032-.423.057-.8.078-1.14-.522.597-1.054 1.326-1.59 2.194-.54.866-1.092 1.824-1.656 2.87.255-.042.53-.076.823-.108.293-.033.577-.055.853-.07.278-.015.532-.03.763-.038.232-.013.404-.015.516-.015v-.14zM115.896 85.718c-.074.115-.152.296-.238.547-.09.25-.173.53-.255.832-.08.304-.156.598-.223.882-.066.29-.116.524-.146.71-.01.082-.028.197-.054.353-.025.15-.05.324-.076.507-.026.187-.05.373-.07.562-.02.192-.037.358-.047.502.36-.626.715-1.244 1.063-1.855.347-.61.718-1.156 1.107-1.64.082-.1.17-.21.27-.328.098-.12.205-.227.324-.325.117-.097.25-.18.393-.245.144-.068.303-.1.478-.1.246 0 .437.063.57.19.133.13.233.278.3.453.065.174.104.357.115.547.01.188.016.353.016.485 0 .392-.018.78-.053 1.17-.037.39-.055.778-.055 1.17 0 .482.034.84.1 1.077.066.234.142.412.225.53.08.12.156.218.223.293.066.076.1.2.1.375 0 .113-.05.23-.156.347-.1.117-.214.186-.338.205-.205.023-.385-.034-.54-.166-.152-.137-.28-.314-.382-.55-.104-.23-.182-.49-.238-.782-.058-.294-.086-.592-.086-.9 0-.492.038-.982.116-1.476.077-.49.117-.95.117-1.37v-.44c0-.15-.027-.213-.08-.19-.174.09-.367.26-.576.505-.21.248-.423.535-.64.863-.214.33-.43.68-.645 1.054-.217.375-.417.733-.6 1.074-.186.348-.35.654-.494.93-.144.27-.25.463-.323.588-.062.112-.188.166-.376.163-.193-.007-.375-.03-.548-.07-.153-.032-.276-.103-.37-.21-.09-.104-.138-.23-.138-.378 0-.14.02-.326.054-.558.036-.234.074-.51.116-.84.04-.38.08-.698.114-.957.037-.253.076-.5.116-.73l.132-.73c.045-.256.104-.568.175-.938.053-.254.1-.494.14-.715.04-.223.09-.414.146-.578.056-.162.123-.293.198-.385.078-.09.173-.138.287-.138.123 0 .23.023.322.075.093.053.17.114.232.186.06.07.11.146.145.223.037.072.056.137.056.188zM128.39 81.856c-.258.576-.516 1.236-.78 1.985-.26.752-.497 1.522-.707 2.317-.21.794-.382 1.59-.514 2.38-.135.788-.203 1.508-.203 2.165 0 .27.014.502.04.71.026.203.06.334.1.383.102.052.2.063.293.032.09-.032.18-.07.26-.122l.246-.154c.083-.053.165-.075.247-.075.144 0 .256.03.34.098.08.068.1.174.06.316-.03.11-.09.23-.185.354-.093.12-.204.234-.33.335-.13.104-.275.188-.44.254-.163.067-.328.1-.492.1-.297 0-.526-.07-.685-.222-.16-.15-.277-.324-.353-.52-.078-.205-.12-.407-.132-.62-.01-.21-.014-.377-.014-.5 0-.225.008-.447.023-.67.016-.22.034-.437.056-.65-.27.377-.57.758-.902 1.144-.334.388-.69.743-1.07 1.07-.205.175-.432.34-.68.493-.244.153-.53.23-.86.23-.255 0-.472-.066-.645-.192-.176-.13-.314-.294-.417-.493-.102-.2-.177-.42-.222-.663-.047-.24-.07-.474-.07-.7 0-.616.112-1.194.34-1.747.223-.55.505-1.046.843-1.49.34-.446.707-.836 1.1-1.163.396-.33.758-.58 1.085-.756.185-.1.382-.19.594-.27.21-.075.48-.115.806-.115.228.022.417.08.57.17.154.095.278.202.37.326.052-.187.103-.38.154-.585.052-.204.113-.427.186-.66.173-.617.332-1.188.477-1.72.142-.525.255-.922.337-1.187.05-.175.138-.303.262-.378.122-.08.244-.115.367-.115.175 0 .327.036.454.115.13.075.193.205.193.392 0 .05-.01.12-.038.2-.023.08-.045.15-.065.2zm-2.602 4.818c-.163.05-.285.063-.362.028-.076-.028-.14-.073-.192-.13-.052-.057-.1-.112-.146-.17-.045-.053-.115-.084-.208-.084-.358 0-.744.155-1.155.463-.41.31-.788.69-1.13 1.14-.342.45-.63.933-.854 1.446-.223.513-.337.974-.337 1.385 0 .09.01.19.024.303.014.107.038.208.07.307.03.1.068.175.115.237.045.062.1.093.16.093.125 0 .27-.05.44-.155.168-.102.35-.236.545-.406.196-.173.395-.36.6-.562.207-.206.396-.417.57-.63.216-.258.415-.5.592-.723.178-.23.346-.463.5-.71.153-.247.295-.516.424-.808.126-.293.242-.634.344-1.023zM130.206 85.828c-.144.35-.258.67-.338.97-.083.296-.15.58-.2.852-.052.27-.093.544-.125.81-.03.268-.06.544-.09.83.174-.41.328-.767.46-1.062.133-.297.254-.56.362-.784.11-.226.21-.42.307-.587.098-.163.204-.322.315-.476.083-.12.178-.25.286-.383.108-.133.23-.26.377-.375.143-.12.31-.215.5-.29.188-.068.407-.105.652-.105.216 0 .39.037.523.106.134.074.234.153.3.25.068.09.11.175.133.25.018.076.03.12.03.132 0 .114-.026.21-.08.285-.05.077-.115.14-.19.185-.078.047-.158.08-.245.1-.088.02-.168.033-.24.033-.082 0-.158-.03-.23-.086-.07-.056-.137-.087-.2-.087-.236 0-.478.127-.73.38-.25.25-.495.57-.73.96-.235.392-.46.822-.668 1.294-.212.47-.394.926-.548 1.366-.154.443-.276.844-.37 1.2-.092.36-.137.615-.137.77 0 .235-.153.355-.462.355-.206 0-.382-.03-.532-.1-.147-.063-.234-.174-.252-.332.04-.54.104-1.102.192-1.68.087-.58.176-1.16.27-1.74.09-.58.173-1.154.244-1.717.072-.563.11-1.107.11-1.63 0-.112.078-.203.236-.27.16-.068.286-.1.377-.1.268 0 .45.074.547.22.096.153.146.302.146.458zM136.945 84.81c.185 0 .354.042.516.123.16.086.293.193.408.334.113.138.203.293.27.46.065.17.1.347.1.532 0 .295-.062.584-.185.86-.124.277-.27.537-.438.783-.17.247-.34.466-.507.656-.17.187-.306.34-.41.45-.08.093-.203.218-.368.37-.164.155-.356.303-.578.453-.22.15-.46.276-.714.386-.258.107-.523.16-.8.16-.145 0-.283-.017-.416-.053-.135-.037-.254-.088-.355-.164-.01.115-.004.268.017.457.018.188.07.374.154.56.08.185.203.345.368.478.164.134.385.2.663.2.142 0 .307-.025.49-.075.515-.144.902-.325 1.17-.548.266-.223.48-.44.638-.668.16-.228.298-.426.416-.6.118-.177.28-.288.485-.342.143-.028.262-.026.353.01.093.035.138.145.138.33 0 .08-.027.196-.083.34-.058.143-.135.302-.24.467-.1.17-.216.34-.345.503-.128.163-.27.313-.423.445-.33.288-.712.544-1.148.77-.436.223-.894.338-1.376.338-.37 0-.682-.06-.94-.178-.254-.117-.465-.265-.63-.445-.164-.18-.29-.377-.383-.595-.092-.21-.158-.42-.2-.615-.04-.192-.065-.362-.07-.504-.005-.145-.006-.236-.006-.277 0-.71.145-1.388.437-2.04.293-.65.66-1.227 1.1-1.722.442-.5.92-.896 1.44-1.192.515-.296 1-.447 1.45-.447zm.17 1.526c0-.133-.046-.218-.14-.255-.09-.033-.2-.042-.323-.016-.123.024-.252.067-.386.124l-.338.147c-.276.132-.527.3-.754.508-.225.205-.427.428-.608.67-.18.24-.335.484-.468.735-.134.252-.247.496-.338.734.07-.034.13-.036.178-.01.045.027.083.064.114.105.03.05.068.094.107.137.04.04.097.062.168.062.153 0 .316-.038.485-.102.17-.067.328-.146.476-.24.148-.09.284-.19.407-.298.125-.11.227-.204.31-.29.07-.077.17-.198.298-.357.13-.16.252-.335.37-.524s.22-.385.31-.586c.085-.197.13-.382.13-.544zM140.705 86.736c-.098.236-.194.49-.29.758-.098.272-.19.54-.272.813-.082.264-.138.48-.17.643-.06.392-.107.783-.137 1.18-.03.394-.004.79.076 1.174.134-.008.28-.07.44-.184.158-.11.312-.24.46-.383.15-.146.28-.293.395-.448.112-.153.198-.277.26-.37.06-.103.134-.24.217-.415.082-.172.16-.365.238-.57.078-.2.145-.42.208-.647.062-.223.103-.45.122-.676l.03-.31c.022-.243.104-.42.248-.526.144-.108.287-.162.43-.162.143 0 .276.04.392.124.118.08.164.23.132.445-.062.42-.128.907-.2 1.46-.07.552-.107 1.14-.107 1.754 0 .194.007.392.02.587.018.194.04.368.072.52.03.156.07.28.123.37.05.094.114.143.184.143.125 0 .285-.054.485-.165.2-.106.357-.2.47-.284.165-.125.335-.313.514-.57.18-.255.347-.555.5-.896.155-.338.28-.707.378-1.107.096-.404.145-.805.145-1.204 0-.39-.047-.693-.14-.91-.092-.215-.19-.388-.298-.517-.108-.127-.206-.242-.292-.347-.088-.104-.13-.237-.13-.403 0-.12.04-.237.123-.336.08-.104.21-.157.383-.157.153 0 .316.06.485.178.17.117.322.287.455.5.134.216.244.48.33.79.088.316.13.665.13 1.058 0 .553-.085 1.123-.26 1.71-.176.584-.395 1.11-.662 1.585-.175.316-.358.58-.547.784-.19.204-.37.378-.545.524-.062.048-.145.12-.246.2-.102.08-.218.155-.346.23-.13.07-.276.134-.44.185-.163.05-.337.075-.52.075h-.125c-.042 0-.087-.01-.138-.03-.236-.082-.426-.22-.568-.415-.145-.2-.255-.418-.332-.662-.077-.245-.13-.507-.154-.783-.026-.28-.038-.533-.038-.77-.093.226-.22.468-.385.73-.165.26-.34.493-.523.7-.257.224-.53.402-.814.537-.288.13-.55.194-.786.194-.37 0-.61-.12-.723-.366-.112-.242-.17-.606-.17-1.088 0-.42.037-.838.108-1.247s.133-.732.185-.97c.03-.164.08-.387.146-.67.065-.28.138-.575.215-.884.076-.307.153-.598.23-.87.076-.272.14-.485.19-.638.064-.103.17-.156.325-.156.09 0 .186.024.278.073.09.042.173.096.245.157.07.063.128.13.17.2.04.073.06.13.06.17v.063c-.06.11-.14.285-.238.523zM158.394 83.35c.02-.125.017-.248-.008-.375-.026-.13-.084-.244-.177-.343-.092-.095-.222-.178-.386-.238s-.37-.09-.616-.09c-.288 0-.605.056-.955.168-.348.115-.702.266-1.062.454-.357.188-.71.412-1.052.663-.344.25-.65.52-.915.805-.268.288-.48.587-.64.894-.16.308-.237.603-.237.894 0 .234.078.446.237.635.16.19.332.338.516.438.214.113.566.2 1.054.264.486.06 1.048.165 1.685.307.214.052.46.123.73.213.27.093.53.226.775.395.247.17.454.375.625.623.168.247.252.54.252.88 0 .254-.04.49-.123.697-.084.213-.186.4-.31.562-.122.166-.253.304-.39.42-.14.12-.26.216-.363.286-.513.36-1.055.612-1.623.754-.57.146-1.127.216-1.67.216-.555 0-1.008-.063-1.36-.196-.357-.14-.638-.294-.85-.48-.21-.182-.355-.374-.436-.578-.083-.2-.124-.36-.124-.484 0-.09.025-.17.076-.237.052-.065.114-.12.185-.16.073-.04.146-.07.223-.086.078-.015.14-.023.193-.023.165 0 .297.08.395.235.097.156.202.327.314.514.08.123.254.25.515.382.262.13.567.195.915.195.328 0 .69-.05 1.086-.142.394-.09.76-.22 1.1-.383.337-.167.622-.364.852-.596.233-.228.348-.484.348-.76 0-.166-.083-.31-.247-.438-.166-.134-.376-.246-.632-.352-.257-.1-.545-.19-.87-.27-.32-.075-.64-.144-.953-.206-.315-.063-.607-.118-.884-.17-.277-.053-.502-.1-.677-.153-.154-.04-.323-.12-.507-.238-.185-.118-.36-.272-.525-.448-.163-.18-.3-.39-.414-.632s-.17-.52-.17-.826c0-.42.093-.85.277-1.277.185-.43.43-.84.73-1.23.303-.392.66-.758 1.063-1.096.406-.34.83-.63 1.27-.876.442-.248.886-.445 1.338-.587.452-.143.88-.217 1.293-.217.523 0 .942.078 1.254.23.314.156.55.35.716.584.164.238.268.497.316.778.047.283.068.548.068.792 0 .238-.036.424-.105.556-.074.133-.16.23-.262.29-.103.063-.206.1-.308.114-.103.02-.19.025-.263.025-.204 0-.322-.08-.354-.247-.026-.165-.007-.44.066-.834zM159.378 85.997c.114-.043.25-.08.416-.107.163-.033.317-.057.462-.077.133-.453.27-.907.407-1.372.14-.46.31-.944.516-1.46.102-.236.208-.403.323-.5.112-.098.236-.145.368-.145.454 0 .663.183.632.555 0 .16-.04.328-.123.49-.186.37-.35.76-.493 1.17-.144.413-.262.782-.355 1.11.155-.013.315-.02.484-.032.17-.01.332-.022.485-.03.155-.01.292-.017.41-.023.117-.005.202-.01.254-.01.113 0 .21.06.29.17.084.114.125.227.125.34-.01.104-.077.172-.2.205-.124.04-.29.063-.493.08-.206.016-.448.03-.73.044-.284.017-.583.05-.9.103-.063.193-.13.414-.21.662-.075.244-.15.5-.222.774-.073.27-.142.55-.208.83-.066.283-.12.554-.16.812-.022.132-.046.273-.07.428-.025.152-.045.313-.054.48-.01.16-.01.323 0 .484.01.155.03.3.06.423.032.122.077.22.14.3.062.076.147.112.262.112.185 0 .342-.024.477-.08.133-.06.246-.12.337-.18.092-.062.173-.12.246-.177.07-.056.143-.085.216-.085.133 0 .25.045.352.13.104.088.15.197.14.33 0 .167-.093.314-.278.448l-.245.16c-.103.068-.223.133-.36.195-.14.062-.29.115-.448.16-.158.045-.325.068-.5.068-.398 0-.7-.106-.906-.33-.207-.222-.35-.477-.43-.77-.084-.293-.126-.583-.133-.877-.004-.293 0-.504.008-.64.012-.285.045-.583.102-.896.056-.316.118-.624.184-.926.066-.304.133-.59.2-.862.067-.27.126-.505.177-.698-.082.02-.148.03-.2.03-.173 0-.337-.03-.49-.09-.155-.063-.228-.167-.217-.308 0-.183.117-.325.352-.415zM167.333 84.81c.186 0 .358.042.52.123.157.086.292.193.405.334.113.138.204.293.27.46.068.17.103.347.103.532 0 .295-.06.584-.185.86-.125.277-.27.537-.44.783-.17.247-.338.466-.507.656-.17.187-.305.34-.406.45-.084.093-.208.218-.372.37-.163.155-.355.303-.575.453-.22.15-.46.276-.716.386-.258.107-.524.16-.8.16-.146 0-.282-.017-.417-.053-.134-.037-.252-.088-.354-.164-.012.115-.006.268.015.457.02.188.07.374.153.56.082.185.205.345.37.478.164.134.384.2.66.2.145 0 .308-.025.494-.075.513-.144.902-.325 1.167-.548.267-.223.478-.44.64-.668.158-.228.296-.426.414-.6.12-.177.283-.288.485-.342.143-.028.26-.026.354.01.09.035.138.145.138.33 0 .08-.028.196-.084.34-.06.143-.138.302-.24.467-.1.17-.216.34-.343.503-.13.163-.27.313-.423.445-.33.288-.713.544-1.15.77-.434.223-.89.338-1.374.338-.37 0-.685-.06-.94-.178-.256-.117-.468-.265-.63-.445-.164-.18-.293-.377-.386-.595-.09-.21-.157-.42-.2-.615-.04-.192-.064-.362-.07-.504-.005-.145-.006-.236-.006-.277 0-.71.146-1.388.438-2.04.292-.65.66-1.227 1.102-1.722.44-.5.92-.896 1.438-1.192.513-.296.998-.447 1.45-.447zm.17 1.526c0-.133-.047-.218-.137-.255-.093-.033-.2-.042-.324-.016-.125.024-.25.067-.387.124-.132.057-.242.107-.338.147-.276.132-.527.3-.752.508-.226.205-.427.428-.607.67-.18.24-.335.484-.47.735-.133.252-.247.496-.338.734.07-.034.13-.036.177-.01.046.027.084.064.115.105.03.05.066.094.106.137.042.04.098.062.17.062.154 0 .315-.038.485-.102.17-.067.33-.146.477-.24.15-.09.285-.19.406-.298.125-.11.23-.204.31-.29.074-.077.172-.198.3-.357.13-.16.25-.335.37-.524.117-.19.22-.385.306-.586.087-.197.132-.382.132-.544zM173.104 81.485c0 .084-.014.19-.04.318s-.062.248-.115.36c-.257.584-.5 1.188-.73 1.81-.23.623-.443 1.248-.64 1.883-.327 1.08-.582 2.113-.768 3.11-.022.072-.045.194-.07.368-.026.175-.05.373-.076.593-.027.22-.045.448-.058.685-.01.236 0 .45.034.646.028.197.082.353.152.477.074.124.182.187.325.187.14 0 .243-.02.306-.063.063-.04.11-.09.144-.14l.11-.138c.037-.04.102-.062.19-.062.125 0 .24.04.34.124.104.08.15.184.15.308 0 .16-.035.305-.12.423-.08.118-.188.214-.315.293-.126.076-.262.135-.41.175-.14.042-.275.063-.395.063-.45 0-.79-.145-1.02-.433-.226-.284-.37-.65-.444-1.1-.07-.444-.085-.94-.04-1.49.048-.548.12-1.086.217-1.61.1-.522.204-1 .316-1.436.11-.44.2-.772.262-1.01.203-.77.423-1.505.66-2.208.236-.705.453-1.33.647-1.884.203-.587.45-.866.738-.83.175.018.324.057.45.113.132.057.196.21.196.465zM174.74 87.043c-.104.37-.203.756-.29 1.16-.088.407-.162.808-.217 1.208-.058.404-.097.745-.132 1.033.363-.738.69-1.455.995-2.146.3-.693.646-1.323 1.023-1.884.164-.25.353-.512.56-.787.212-.276.488-.532.84-.77.042-.02.095-.045.157-.068.06-.027.132-.04.21-.04h.117c.048 0 .087.01.115.03l.033.016h.043c.236.09.395.24.47.438.077.2.136.37.18.5.02.146.033.29.038.43.007.147.01.29.01.435 0 .3-.02.59-.063.877l-.124.847-.217 1.707c.105-.212.226-.474.364-.775.135-.304.287-.61.445-.917s.324-.604.493-.882c.166-.285.34-.522.514-.716.115-.114.257-.247.43-.396.177-.145.4-.22.663-.22h.107c.195.05.35.13.46.237.116.107.2.23.257.37.056.138.09.285.098.44.01.153.013.3.013.442 0 .506-.022 1.056-.08 1.657-.055.597-.09 1.17-.1 1.714 0 .45.024.77.078.962.05.19.115.33.19.423.077.094.147.17.215.23s.115.192.147.387c.02.09-.006.192-.086.3-.075.106-.21.16-.405.16-.258 0-.465-.073-.626-.214-.158-.146-.28-.324-.36-.538-.083-.22-.14-.446-.17-.69-.03-.253-.046-.48-.046-.698 0-.078.012-.24.04-.484.022-.24.057-.513.09-.82.037-.308.07-.632.107-.97.04-.34.062-.65.075-.934.018-.28.018-.514 0-.697-.014-.186-.047-.278-.096-.278-.062 0-.16.084-.293.244-.235.3-.478.653-.724 1.063s-.48.82-.702 1.233c-.218.408-.416.788-.59 1.14-.173.35-.314.608-.413.782-.084.144-.192.246-.327.308-.133.063-.257.09-.37.09-.15 0-.278-.033-.382-.106-.102-.07-.14-.215-.12-.433.04-.356.095-.733.16-1.126.067-.398.133-.8.192-1.21.062-.41.11-.825.15-1.246.042-.42.064-.845.064-1.277 0-.234-.015-.396-.042-.492-.034-.09-.077-.14-.124-.14-.052 0-.114.033-.19.095-.07.064-.146.14-.228.23-.082.093-.16.192-.236.3-.08.11-.15.214-.21.316-.248.39-.465.76-.66 1.115-.196.355-.385.707-.563 1.06-.18.355-.358.725-.533 1.108-.172.386-.364.81-.566 1.268-.144.324-.288.543-.424.673-.138.13-.357.166-.656.116-.14-.022-.248-.055-.314-.095s-.11-.084-.13-.13c-.018-.044-.032-.095-.032-.146 0-.055-.007-.11-.016-.17 0-.155.01-.347.032-.583.02-.237.048-.485.075-.748.033-.263.065-.517.102-.762.034-.245.07-.462.1-.648l.123-.713c.052-.303.11-.618.175-.94.067-.32.132-.63.194-.915.06-.29.115-.508.17-.663.03-.072.08-.122.146-.154.067-.03.14-.045.224-.045.183 0 .35.07.5.215.146.145.222.27.222.373v.057c-.12.216-.236.51-.346.878zM190.31 87.35c-.072.132-.174.353-.3.655-.128.304-.257.645-.388 1.032-.127.383-.242.788-.338 1.215-.1.426-.146.826-.146 1.206 0 .195.022.338.065.432.038.09.126.138.26.138.123 0 .228-.034.314-.1.085-.065.164-.1.223-.1.115 0 .198.045.254.138.057.09.084.194.084.308 0 .062-.016.142-.053.24-.034.098-.096.188-.186.278-.086.084-.205.16-.352.22-.152.063-.34.093-.563.093-.195 0-.36-.045-.493-.14-.133-.092-.24-.21-.316-.35-.075-.147-.13-.312-.16-.503s-.046-.378-.046-.56c0-.31.032-.618.09-.932.063-.313.125-.64.188-.98-.245.36-.53.72-.848 1.077-.317.36-.655.69-1.017.987-.203.16-.414.316-.637.46-.22.145-.495.217-.825.217-.283 0-.517-.07-.697-.216-.18-.144-.318-.316-.424-.513-.104-.2-.173-.413-.21-.64-.032-.226-.053-.423-.053-.583 0-.403.07-.823.2-1.264.133-.44.314-.88.54-1.31.225-.43.49-.84.79-1.23.306-.387.625-.733.966-1.03.336-.3.682-.535 1.037-.71.354-.172.7-.26 1.04-.26.285 0 .515.054.688.163.175.107.31.23.41.366.098.14.162.277.19.418.033.14.05.24.05.3 0 .268-.066.432-.194.492-.13.063-.268.09-.407.09-.113 0-.207-.03-.28-.098-.07-.064-.136-.138-.19-.215-.058-.08-.116-.15-.178-.215-.064-.07-.13-.1-.198-.1-.083.007-.164.02-.24.027-.077.013-.167.042-.27.092-.225.104-.506.302-.84.595-.335.293-.653.64-.96 1.045-.31.407-.57.853-.784 1.337-.214.488-.325.984-.325 1.486 0 .32.045.56.133.716.085.158.167.237.237.237.265 0 .538-.09.814-.272.278-.187.548-.42.81-.702.262-.284.514-.595.753-.93.243-.342.46-.663.648-.97.188-.308.35-.584.49-.824.14-.242.24-.4.303-.484.082-.113.158-.223.238-.338.075-.114.192-.17.346-.17.184 0 .358.06.52.178.168.118.25.247.25.393 0 .054-.006.09-.013.11zM196.34 87.533c-.187 0-.332-.036-.44-.106-.108-.07-.162-.18-.162-.32 0-.083.015-.173.047-.27.03-.1.047-.192.047-.27 0-.23-.088-.404-.257-.525-.167-.124-.344-.186-.527-.186-.517 0-.966.16-1.357.48-.387.316-.712.703-.976 1.157-.26.46-.46.944-.603 1.455-.134.516-.204.964-.204 1.356 0 .15.01.315.04.484.025.166.073.325.146.468.07.144.163.263.275.353.11.095.264.137.445.137.37 0 .694-.062.98-.19.28-.127.526-.293.734-.49.212-.2.397-.415.557-.638l.438-.642c.134-.2.263-.364.386-.493.124-.126.256-.192.397-.192.115 0 .21.04.287.116.076.075.116.19.116.343 0 .075-.045.204-.13.386-.09.186-.215.395-.37.63-.16.238-.354.483-.586.74s-.493.488-.787.698c-.287.21-.612.384-.96.523-.348.142-.717.212-1.107.212-.43 0-.777-.103-1.04-.302-.26-.2-.46-.434-.6-.708-.14-.27-.232-.556-.274-.847-.048-.29-.07-.53-.07-.713 0-.384.05-.775.16-1.187.107-.412.263-.814.463-1.215.2-.403.435-.782.704-1.14.273-.36.577-.674.908-.945.335-.272.69-.487 1.062-.65.376-.155.763-.236 1.163-.236.218 0 .432.038.647.107.215.07.413.178.59.313.182.14.327.31.442.51.114.202.167.43.167.686 0 .296-.035.522-.107.678-.074.15-.152.26-.238.32-.09.063-.17.096-.252.1-.084.01-.134.01-.154.01zM200.99 81.35c-.086.227-.216.558-.397 1.006-.18.445-.357.937-.533 1.47-.357 1.12-.637 2.21-.846 3.27-.203 1.06-.327 2.138-.37 3.224.072-.133.162-.284.266-.454.1-.166.203-.338.31-.507.097-.17.198-.33.297-.48.096-.145.178-.272.24-.376.124-.204.284-.47.49-.793.205-.32.44-.636.7-.936.264-.3.544-.566.846-.785.305-.223.617-.332.946-.332.248 0 .44.04.577.12.136.086.24.19.308.328.064.133.11.285.13.46.022.175.03.353.03.54 0 .192-.014.414-.045.66-.03.247-.063.46-.09.644-.034.166-.063.406-.097.726-.027.317-.05.65-.06 1-.01.35.002.68.04.992.035.31.11.542.222.683.03.044.075.072.132.08.054.012.11.035.166.076.058.043.11.104.156.187.046.08.07.212.07.383 0 .156-.084.285-.247.392-.167.11-.348.16-.54.16-.08 0-.192-.044-.337-.143-.147-.1-.29-.287-.434-.562-.11-.217-.187-.437-.22-.662-.038-.226-.055-.44-.055-.647 0-.58.027-1.168.09-1.754.062-.585.08-1.18.045-1.786-.02-.234-.045-.383-.076-.443-.03-.062-.093-.083-.183-.062-.146.04-.315.168-.517.385-.2.217-.4.45-.598.717-.202.26-.386.513-.547.758-.166.25-.277.418-.34.51-.254.42-.524.866-.807 1.34-.28.47-.508.903-.668 1.29-.042.106-.107.17-.194.202-.087.03-.183.045-.28.045h-.333c-.097 0-.184-.015-.255-.045-.07-.03-.13-.085-.178-.16-.048-.08-.073-.2-.084-.362.04-.874.116-1.778.226-2.718.104-.937.237-1.875.397-2.806.16-.936.353-1.855.578-2.758.228-.9.48-1.75.768-2.555.053-.14.137-.247.248-.312.113-.067.23-.1.353-.1.208 0 .377.064.52.192.138.126.204.287.204.484v.09s-.006.072-.025.126z"/></g></svg>